<svg xmlns="http://www.w3.org/2000/svg" xmlns:xlink="http://www.w3.org/1999/xlink" width="1200" zoomAndPan="magnify" viewBox="0 0 900 374.999991" height="500" preserveAspectRatio="xMidYMid meet" version="1.0"><defs><g/></defs><path stroke-linecap="butt" transform="matrix(0.799393, 0, 0, 0.799393, -71.515693, 3.792146)" fill="none" stroke-linejoin="miter" d="M 170.637348 260.037167 C 178.328729 259.93455 186.743316 259.905231 195.885994 259.958983 C 205.028672 260.012734 214.953193 260.139784 225.654671 260.349904 C 230.536304 260.452521 235.369072 260.506273 240.148088 260.506273 C 244.927104 260.506273 249.652369 260.506273 254.328768 260.506273 C 260.25123 228.396953 262.591872 203.202058 261.340923 184.916702 C 260.094861 166.631346 255.159476 157.488668 246.539656 157.488668 C 239.99172 157.488668 232.613075 160.811501 224.408609 167.462054 C 216.096639 174.112607 207.315563 185.019319 198.070268 200.191962 C 193.496486 207.775841 188.922704 216.55203 184.353808 226.530303 C 179.780026 236.503689 175.21113 247.674273 170.637348 260.037167 Z M 292.047812 260.657755 C 293.499109 260.657755 294.280952 261.180613 294.383569 262.216555 C 294.486185 263.257383 294.173448 264.298212 293.450243 265.334154 C 292.614648 266.4776 291.578706 267.049323 290.332644 267.049323 C 284.928153 267.049323 279.631166 267.049323 274.436796 267.049323 C 269.237539 267.049323 264.199537 266.995571 259.317904 266.892954 C 256.615659 280.19406 254.04535 292.063416 251.60209 302.505908 C 249.15883 312.948401 246.901258 321.856526 244.824487 329.23517 C 244.409133 330.481233 243.62729 331.365693 242.483845 331.883664 C 241.340399 332.401635 240.353322 332.401635 239.522614 331.883664 C 238.589288 331.46831 238.276551 330.58385 238.589288 329.23517 C 241.604271 317.908218 244.330949 307.050371 246.769322 296.661631 C 249.212582 286.27289 251.318672 276.348369 253.082705 266.892954 C 247.057627 266.790337 241.213349 266.736585 235.549873 266.736585 C 229.886397 266.736585 224.457474 266.68772 219.263104 266.580217 C 209.494951 266.374983 200.352273 266.243047 191.83507 266.194182 C 183.312979 266.14043 175.523867 266.164862 168.45796 266.272366 C 163.884178 279.465969 159.364147 294.37474 154.897868 310.998679 C 154.482514 312.244742 153.700671 313.129202 152.562112 313.647173 C 151.418666 314.17003 150.431589 314.17003 149.600881 313.647173 C 148.770173 313.231819 148.403684 312.352245 148.506301 310.998679 C 150.690575 302.999447 152.923714 295.308065 155.210606 287.934307 C 157.497497 280.555663 159.833253 273.387138 162.222761 266.423848 C 143.727285 266.633968 132.507836 267.621045 128.559528 269.385079 C 128.662145 269.697816 128.818514 270.034986 129.028634 270.401475 C 129.233868 270.763077 129.443988 271.153999 129.649222 271.569353 C 129.859342 271.984707 130.118328 272.34631 130.431065 272.659047 C 130.738916 272.971784 131.002788 273.23077 131.208022 273.44089 C 132.146233 274.271598 132.405219 275.204924 131.989865 276.245752 C 131.467007 277.389198 130.690051 278.268771 129.649222 278.894246 C 128.505776 279.51972 127.416082 279.465969 126.375254 278.737877 C 124.508603 277.281694 123.155037 275.204924 122.324329 272.502678 C 121.596238 270.010553 122.426946 267.621045 124.821341 265.334154 C 128.349408 261.908704 141.547897 260.139784 164.407035 260.037167 C 170.637348 242.787753 177.131532 227.48806 183.884702 214.138089 C 190.637872 200.788118 197.654914 189.334116 204.926055 179.776084 C 219.473224 160.75775 233.912889 151.253469 248.249938 151.253469 C 254.900491 151.253469 259.78701 154.473685 262.899723 160.914118 C 265.812089 167.251934 267.527257 175.774024 268.045228 186.475502 C 268.250462 191.772489 268.226029 197.333348 267.967044 203.153193 C 267.708058 208.968151 267.21452 215.100733 266.486428 221.541166 C 265.758337 227.981599 264.903196 234.451351 263.916119 240.945535 C 262.929042 247.43972 261.810029 254.012088 260.563967 260.657755 Z M 371.527053 257.075936 C 372.567881 256.035107 373.657575 255.673505 374.801021 255.986242 C 375.944466 256.294093 376.569941 256.919568 376.672558 257.852893 C 376.877791 258.996338 376.462437 260.086032 375.426495 261.126861 C 373.139604 263.413752 370.750096 265.514955 368.257971 267.440244 C 365.760959 269.360646 363.215083 271.207751 360.620341 272.971784 C 355.528588 276.504738 350.124097 278.268771 344.411756 278.268771 C 340.463448 278.268771 337.658586 277.130212 335.997169 274.843321 C 334.438369 272.659047 333.553909 269.697816 333.343789 265.959629 C 333.241172 262.324058 333.553909 258.580984 334.282001 254.735293 C 330.64643 261.801201 327.005973 267.464677 323.370402 271.725722 C 319.524712 276.089384 315.683907 278.268771 311.838216 278.268771 C 307.889909 278.268771 305.813138 275.67403 305.603017 270.479659 C 305.813138 265.905877 307.005449 261.801201 309.189723 258.16563 C 311.36911 254.632676 313.914987 252.399537 316.827353 251.466212 C 319.632215 250.528 322.021723 251.62258 323.995877 254.735293 C 324.513848 255.986242 324.411231 257.022184 323.68314 257.852893 C 322.955048 258.893721 322.021723 259.568061 320.878277 259.880798 C 319.734832 260.193536 318.801507 259.827047 318.073415 258.791105 C 317.550558 257.960396 316.983721 257.804028 316.358247 258.321999 C 315.630156 258.737353 315.009568 259.621813 314.48671 260.970492 C 314.173973 261.698584 313.890555 262.402242 313.631569 263.076582 C 313.372583 263.750922 313.138031 264.449694 312.92791 265.177786 C 312.722676 265.905877 312.566308 266.555784 312.463691 267.127507 C 312.356187 267.69923 312.25357 268.24652 312.150954 268.764491 C 312.150954 269.179845 312.175386 269.541447 312.229138 269.854185 C 312.278003 270.166922 312.356187 270.528524 312.463691 270.943879 C 312.566308 271.67197 312.92791 272.038459 313.553385 272.038459 C 316.670984 272.038459 320.306555 268.398002 324.460096 261.126861 C 328.721141 253.958337 332.772066 245.387381 336.617757 235.413995 C 338.591911 230.527475 340.463448 225.748459 342.227481 221.07206 C 343.996401 216.400548 345.604066 211.826765 347.060249 207.360486 C 348.516432 202.996824 349.738062 199.25375 350.725139 196.136151 C 351.712216 193.023438 352.46474 190.580178 352.982711 188.811258 C 353.500682 187.047225 354.385142 185.850027 355.631204 185.229439 C 356.77465 184.603965 357.761727 184.603965 358.592435 185.229439 C 359.423144 185.957531 359.633264 187.149842 359.21791 188.811258 C 357.971847 193.282424 356.672033 197.802454 355.318467 202.37135 C 353.969788 206.945132 352.567357 211.514028 351.111174 216.08781 C 347.993574 226.061197 345.345081 235.257626 343.165693 243.672213 C 340.776185 252.0868 339.681605 258.893721 339.891725 264.088092 C 339.891725 269.385079 341.968496 272.038459 346.126924 272.038459 C 349.967728 272.038459 353.867171 270.738645 357.815479 268.139016 C 359.892249 266.790337 362.047205 265.207105 364.280344 263.389319 C 366.513483 261.566648 368.932311 259.465444 371.527053 257.075936 Z M 425.298314 258.009261 C 426.334256 256.973319 427.428836 256.60683 428.567395 256.919568 C 429.505607 257.232305 430.126195 257.852893 430.438932 258.791105 C 430.649052 259.827047 430.179947 260.921627 429.036501 262.060186 C 417.088961 272.869167 407.012957 278.268771 398.803605 278.268771 C 395.475885 278.268771 392.778526 277.545566 390.696869 276.089384 C 388.722715 274.633201 387.476652 272.297445 386.958681 269.077228 C 382.384899 275.204924 378.177606 278.268771 374.331915 278.268771 C 370.28099 278.268771 368.101602 276.089384 367.788865 271.725722 C 367.788865 267.880031 368.878559 264.190709 371.062833 260.657755 C 373.036987 257.124801 375.529112 254.583811 378.544095 253.025011 C 381.554191 251.466212 384.202684 251.827814 386.489575 254.114705 C 387.217667 254.945414 387.320284 255.932491 386.802313 257.075936 C 386.176838 258.111878 385.297265 258.893721 384.153819 259.411692 C 383.010373 259.93455 382.023296 259.778181 381.192588 258.947473 C 380.464497 258.321999 379.580037 258.634736 378.544095 259.880798 C 377.503266 261.126861 376.569941 262.685661 375.739232 264.557198 C 374.801021 266.531351 374.331915 268.295385 374.331915 269.854185 C 374.331915 270.479659 374.439418 270.99763 374.644652 271.412984 C 374.854772 271.725722 375.113758 271.88209 375.426495 271.88209 C 375.529112 271.984707 375.739232 272.038459 376.047083 272.038459 C 376.462437 272.038459 377.190529 271.569353 378.231357 270.636028 C 379.164683 269.907936 380.620865 268.192768 382.595019 265.490523 C 384.569173 262.895781 386.856064 259.206459 389.450806 254.427443 C 390.076281 253.18138 390.906989 252.399537 391.942931 252.0868 C 393.086377 251.774062 394.024588 251.827814 394.75268 252.243168 C 395.475885 252.658522 395.739757 253.596734 395.529636 255.048031 L 395.216899 255.986242 C 393.970837 260.037167 393.399114 263.516369 393.501731 266.423848 C 393.501731 269.541447 395.373268 271.359233 399.116342 271.88209 C 405.556775 272.502678 414.284098 267.880031 425.298314 258.009261 Z M 476.416194 256.919568 C 477.764874 256.191476 478.859454 256.088859 479.690163 256.60683 C 480.520871 257.232305 480.936225 258.063013 480.936225 259.098955 C 480.726105 260.349904 479.998013 261.336981 478.751951 262.060186 C 473.870318 264.762431 468.724813 266.68772 463.325209 267.831166 C 457.715484 268.969725 453.503304 269.233597 450.698442 268.608122 C 448.206317 267.982648 446.491149 266.790337 445.557824 265.021417 C 445.039852 264.190709 444.595179 263.335568 444.233577 262.451108 C 443.867088 261.566648 443.58367 260.711507 443.373549 259.880798 C 443.270932 259.465444 443.168315 259.074523 443.065699 258.71292 C 442.958195 258.346431 442.855578 258.063013 442.752961 257.852893 C 442.542841 257.334922 442.23499 257.075936 441.81475 257.075936 C 441.091545 257.075936 440.153333 257.852893 439.009887 259.411692 C 438.076562 260.970492 437.089485 262.739412 436.048656 264.713566 C 435.012714 266.68772 434.182006 268.349137 433.556532 269.697816 C 432.515703 272.502678 431.426009 274.686953 430.282563 276.245752 C 429.246621 277.907169 427.790438 278.737877 425.918901 278.737877 C 423.32416 278.737877 422.180714 276.86634 422.493451 273.128153 C 422.698685 269.385079 423.944748 263.413752 426.231639 255.204399 C 426.646993 253.85572 427.477701 252.917508 428.723764 252.399537 C 429.764592 251.984183 430.751669 251.984183 431.684995 252.399537 C 432.515703 252.814891 432.82844 253.748216 432.623206 255.204399 C 432.207852 256.557965 431.841363 257.774708 431.528626 258.869289 C 431.220775 259.958983 430.96179 261.024244 430.751669 262.060186 C 432.207852 259.255324 434.025637 256.60683 436.205025 254.114705 C 438.286682 251.930431 440.725056 250.840737 443.529918 250.840737 C 445.919426 250.840737 447.478226 251.466212 448.206317 252.712274 C 448.934409 253.85572 449.45238 255.307016 449.765117 257.075936 C 449.975237 257.696524 450.180471 258.297566 450.390591 258.869289 C 450.595825 259.441012 450.805946 259.983415 451.011179 260.506273 C 451.426533 261.542215 452.310994 262.216555 453.659673 262.529292 C 455.74133 262.944646 459.064164 262.685661 463.637946 261.752335 C 465.817334 261.336981 467.972289 260.711507 470.102811 259.880798 C 472.233334 259.05009 474.339424 258.063013 476.416194 256.919568 Z M 489.663549 290.113695 C 490.806994 288.765015 491.012228 287.362584 490.284137 285.906401 C 489.868783 285.075693 489.482748 284.323169 489.116259 283.648829 C 488.754656 282.97449 488.309983 282.373448 487.792012 281.855477 C 486.961304 282.270831 486.027978 282.842554 484.98715 283.570645 C 483.946321 284.298736 482.856627 285.075693 481.713182 285.906401 C 480.467119 286.73711 479.299241 287.62157 478.209547 288.554895 C 477.114967 289.493107 476.049705 290.426432 475.013763 291.359757 C 473.039609 293.231294 471.949916 294.946463 471.739795 296.505262 C 471.842412 297.853942 473.611332 298.220431 477.036782 297.594956 C 480.467119 296.974368 484.674412 294.477357 489.663549 290.113695 Z M 531.741369 256.137724 C 533.094935 255.72237 534.082011 255.878739 534.702599 256.60683 C 535.220571 257.437539 535.328074 258.424616 535.015337 259.568061 C 534.497366 260.814124 533.559154 261.644832 532.210475 262.060186 C 525.247184 264.449694 518.596631 267.02489 512.258815 269.776 C 505.920999 272.531997 499.895921 275.415044 494.183579 278.42514 C 496.05023 280.922151 497.037307 283.468028 497.14481 286.06277 C 497.247427 288.867632 496.001365 291.569878 493.401736 294.169506 C 486.027978 300.609939 479.480042 303.932772 473.767701 304.142892 C 468.050473 304.245509 465.196746 302.114987 465.196746 297.751325 C 465.6121 293.905634 467.894104 290.167446 472.052532 286.531876 C 475.898223 282.998922 479.895396 280.037691 484.053824 277.648183 C 483.741087 277.335446 483.42835 277.022709 483.115613 276.709972 C 482.807762 276.402121 482.441273 276.089384 482.025919 275.776646 C 480.98509 274.735818 480.076198 273.748741 479.299241 272.815416 C 478.517398 271.88209 477.764874 270.99763 477.036782 270.166922 C 473.816566 265.387906 474.339424 260.349904 478.595582 255.048031 C 481.923302 251.41246 486.076844 248.710215 491.06598 246.946181 C 495.947613 245.177261 499.998538 244.86941 503.223641 246.007969 C 506.546474 247.151415 507.689919 249.956277 506.649091 254.427443 C 506.233737 255.673505 505.45678 256.557965 504.313334 257.075936 C 503.169889 257.593907 502.182812 257.593907 501.352104 257.075936 C 500.418778 256.660582 500.106041 255.776122 500.418778 254.427443 C 500.726629 252.555906 499.847056 251.62258 497.765398 251.62258 C 495.586011 251.62258 493.093886 252.243168 490.284137 253.489231 C 487.376658 254.735293 485.040901 256.294093 483.271981 258.16563 C 482.441273 258.996338 481.86955 260.037167 481.556813 261.283229 C 481.248962 262.529292 481.664316 264.03434 482.807762 265.80326 C 483.325733 266.531351 483.946321 267.308308 484.674412 268.139016 C 485.402504 268.969725 486.286964 269.854185 487.322906 270.792396 C 487.845764 271.310368 488.363735 271.852771 488.881706 272.424494 C 489.404563 272.996217 489.922534 273.543507 490.440505 274.061478 C 502.392932 267.410925 516.158258 261.439598 531.741369 256.137724 Z M 602.185434 257.388673 C 603.641617 256.450462 604.785063 256.191476 605.615771 256.60683 C 606.446479 257.022184 606.915585 257.804028 607.018202 258.947473 C 607.018202 260.086032 606.392728 261.126861 605.146665 262.060186 C 602.341803 264.141843 599.536941 266.115997 596.732078 267.982648 C 593.927216 269.854185 591.068602 271.623105 588.161123 273.284521 C 582.341278 276.607355 576.628937 278.268771 571.014326 278.268771 C 567.79411 278.268771 565.507219 277.594432 564.158539 276.245752 C 562.80986 274.892186 561.979152 273.23077 561.666414 271.256616 C 561.353677 269.385079 561.197308 267.567294 561.197308 265.80326 C 561.299925 262.998398 561.143557 261.073109 560.728203 260.037167 C 560.312848 259.098955 559.379523 258.634736 557.92334 258.634736 C 555.225982 258.634736 551.898262 260.139784 547.949954 263.154766 C 545.9758 264.713566 543.977214 266.374983 541.949308 268.139016 C 539.926289 269.907936 537.873951 271.774587 535.792293 273.748741 C 535.171705 274.271598 534.546231 274.789569 533.925643 275.307541 C 533.300168 275.830398 532.728446 276.348369 532.210475 276.86634 C 530.964412 277.907169 529.664598 278.376275 528.315918 278.268771 C 526.859736 278.063538 526.077892 277.335446 525.975276 276.089384 C 525.872659 275.258675 526.077892 273.489755 526.60075 270.792396 C 527.118721 268.090151 527.949429 264.503446 529.092875 260.037167 C 530.236321 255.463385 531.843986 249.30637 533.925643 241.566123 C 536.002414 233.825876 538.494539 224.448645 541.406904 213.439317 C 542.545463 209.178272 543.718228 204.917227 544.910539 200.656182 C 546.107736 196.400023 547.275614 192.187843 548.41906 188.034302 C 548.937031 186.578119 549.718874 185.644794 550.754816 185.229439 C 551.898262 184.711468 552.93909 184.711468 553.872416 185.229439 C 554.703124 185.74741 554.962109 186.680736 554.654259 188.034302 C 553.510813 192.187843 552.367368 196.400023 551.223922 200.656182 C 550.080476 204.917227 548.937031 209.178272 547.793585 213.439317 C 546.444906 218.526183 545.066907 223.647256 543.664476 228.787875 C 542.262045 233.93338 540.884047 239.049566 539.535367 244.141319 C 538.181801 249.233072 537.013923 253.777535 536.026846 257.774708 C 535.039769 261.776768 534.184628 265.231537 533.456537 268.139016 C 538.030319 263.775354 542.545463 260.037167 547.016629 256.919568 C 551.585524 253.904585 555.792818 252.399537 559.638509 252.399537 C 562.443371 252.399537 564.36866 253.025011 565.404602 254.271074 C 566.548047 255.619753 567.276139 257.124801 567.588876 258.791105 C 567.691493 259.72443 567.769677 260.633322 567.823429 261.517782 C 567.872294 262.402242 567.847862 263.257383 567.745245 264.088092 C 567.745245 267.103074 568.053095 269.179845 568.67857 270.323291 C 569.196541 271.466736 570.496355 272.038459 572.573126 272.038459 C 577.249525 272.038459 582.028541 270.582276 586.915061 267.674797 C 589.304569 266.218614 591.742942 264.659814 594.239954 262.998398 C 596.732078 261.336981 599.224203 259.568061 601.716328 257.696524 Z M 655.018484 258.009261 C 656.059312 256.973319 657.149006 256.60683 658.292452 256.919568 C 659.225777 257.232305 659.851251 257.852893 660.163989 258.791105 C 660.369222 259.827047 659.900117 260.921627 658.761558 262.060186 C 646.809131 272.869167 636.733127 278.268771 628.523775 278.268771 C 625.200941 278.268771 622.498696 277.545566 620.421925 276.089384 C 618.447771 274.633201 617.201709 272.297445 616.678851 269.077228 C 612.109955 275.204924 607.902662 278.268771 604.056971 278.268771 C 600.006047 278.268771 597.821772 276.089384 597.509035 271.725722 C 597.509035 267.880031 598.603615 264.190709 600.783003 260.657755 C 602.757157 257.124801 605.249282 254.583811 608.264265 253.025011 C 611.279247 251.466212 613.927741 251.827814 616.214632 254.114705 C 616.937837 254.945414 617.04534 255.932491 616.522483 257.075936 C 615.901895 258.111878 615.017435 258.893721 613.873989 259.411692 C 612.730543 259.93455 611.743467 259.778181 610.912758 258.947473 C 610.184667 258.321999 609.305093 258.634736 608.264265 259.880798 C 607.223436 261.126861 606.290111 262.685661 605.459402 264.557198 C 604.526077 266.531351 604.056971 268.295385 604.056971 269.854185 C 604.056971 270.479659 604.159588 270.99763 604.369709 271.412984 C 604.574942 271.725722 604.833928 271.88209 605.146665 271.88209 C 605.249282 271.984707 605.459402 272.038459 605.77214 272.038459 C 606.187494 272.038459 606.915585 271.569353 607.951527 270.636028 C 608.889739 269.907936 610.341035 268.192768 612.315189 265.490523 C 614.289343 262.895781 616.576234 259.206459 619.175863 254.427443 C 619.796451 253.18138 620.627159 252.399537 621.667988 252.0868 C 622.811433 251.774062 623.744759 251.827814 624.47285 252.243168 C 625.200941 252.658522 625.459927 253.596734 625.249807 255.048031 L 624.941956 255.986242 C 623.695893 260.037167 623.124171 263.516369 623.226787 266.423848 C 623.226787 269.541447 625.098324 271.359233 628.836512 271.88209 C 635.276945 272.502678 644.004269 267.880031 655.018484 258.009261 Z M 655.018484 258.009261 " stroke="#804d00" stroke-width="23.939026" stroke-opacity="1" stroke-miterlimit="4"/><path stroke-linecap="butt" transform="matrix(0.799393, 0, 0, 0.799393, -71.515693, 3.792146)" fill="none" stroke-linejoin="miter" d="M 793.741887 268.295385 C 802.361707 263.101015 810.468443 257.593907 818.052321 251.774062 C 825.6362 245.959104 832.755859 239.826522 839.406412 233.386089 C 852.497398 220.813075 862.886138 208.45018 870.572633 196.29252 C 878.156512 184.344979 881.953337 174.47421 881.953337 166.680211 C 881.743217 158.891099 876.964201 154.840174 867.611403 154.527437 C 858.155987 154.2147 842.934479 159.306453 821.946878 169.797811 C 819.454753 175.827776 816.908876 182.918116 814.314134 191.073717 C 811.714506 199.229318 809.066012 208.503932 806.363767 218.892672 C 803.661521 229.281413 801.247581 238.58046 799.117058 246.789813 C 796.986536 254.999165 795.193183 262.16769 793.741887 268.295385 Z M 828.651182 160.29353 C 849.120813 150.735498 864.185952 146.679687 873.846602 148.13587 C 883.614754 149.592052 888.550139 154.732671 888.652756 163.567498 C 888.85799 172.500056 884.963433 183.514271 876.964201 196.605257 C 873.015893 203.25581 868.26131 209.955228 862.705337 216.708398 C 857.144478 223.461568 850.728478 230.322242 843.457337 237.280645 C 829.120288 251.207226 811.973491 264.03434 792.026718 275.776646 C 791.611364 277.232829 791.142258 279.153231 790.624287 281.542739 C 790.10143 283.932248 789.480842 286.790861 788.75275 290.113695 C 788.024659 293.441415 787.272135 296.764248 786.495178 300.091968 C 785.713335 303.414801 784.907059 306.737634 784.076351 310.065354 C 783.34826 313.388187 782.67392 316.373851 782.053332 319.027231 C 781.427858 321.675724 780.909886 323.884431 780.494532 325.648465 L 779.869058 328.609696 C 779.453704 329.963262 778.622995 330.896587 777.376933 331.414558 C 776.233487 331.932529 775.24641 331.932529 774.415702 331.414558 C 773.47749 330.896587 773.169639 329.963262 773.47749 328.609696 C 773.790227 327.568867 774.102965 326.430308 774.415702 325.179359 C 774.518319 324.558771 774.674688 323.806247 774.879921 322.921787 C 775.090042 322.037327 775.300162 321.079569 775.505396 320.03874 C 776.023367 317.336495 777.064196 312.635663 778.622995 305.936245 C 780.181795 299.23194 782.258566 290.480184 784.858194 279.671202 C 777.274316 283.829631 769.582934 287.416336 761.788935 290.426432 C 757.840628 291.779998 755.294751 291.100772 754.156192 288.403413 C 753.428101 286.219139 754.312561 283.155291 756.804686 279.206983 C 759.091577 275.571413 763.245118 271.67197 769.270197 267.518428 C 770.72638 266.68772 771.816074 266.531351 772.544165 267.049323 C 773.374873 267.567294 773.790227 268.349137 773.790227 269.385079 C 773.790227 270.528524 773.169639 271.569353 771.923577 272.502678 C 767.662532 275.517661 764.701301 278.063538 763.039884 280.140308 C 762.20429 281.283754 761.583702 282.246398 761.168347 283.023355 C 760.752993 283.805198 760.494008 284.401353 760.386504 284.816708 C 761.217213 284.606587 762.492594 284.113049 764.207763 283.336092 C 765.922931 282.554249 768.077886 281.596491 770.672628 280.453046 C 775.866998 278.063538 781.168872 275.415044 786.573363 272.502678 C 792.388321 247.879506 797.582691 227.361011 802.156473 210.942305 C 806.725369 194.528486 810.624812 182.214457 813.845028 174.005104 C 810.624812 175.774024 806.93549 177.904547 802.777061 180.396672 C 798.62352 182.888797 793.947121 185.74741 788.75275 188.967627 C 783.55838 192.187843 778.569244 195.564428 773.790227 199.097382 C 769.011211 202.630335 764.388564 206.217041 759.922285 209.852611 C 750.882224 217.43649 745.375116 224.346028 743.400962 230.581227 C 742.672871 233.073352 743.088225 235.047506 744.647025 236.503689 C 745.375116 237.437014 745.531485 238.424091 745.116131 239.46492 C 744.593273 240.710982 743.816317 241.541691 742.775488 241.957045 C 741.632042 242.475016 740.542349 242.372399 739.506406 241.644307 C 736.594041 239.049566 735.763332 235.360243 737.009395 230.581227 C 739.506406 222.889845 745.736719 214.787996 755.714992 206.265906 C 760.596625 202.009747 765.766562 197.929504 771.219918 194.034948 C 776.673274 190.135505 782.312318 186.372885 788.127276 182.737314 C 793.947121 179.096857 799.322292 175.852208 804.257677 172.993594 C 809.193062 170.134981 813.634908 167.72104 817.583216 165.746886 C 819.352136 162.316549 820.910935 160.08341 822.259615 159.047468 C 823.921031 157.801405 825.479831 157.278548 826.936014 157.488668 C 828.182076 157.801405 828.753799 158.73473 828.651182 160.29353 Z M 892.390943 258.009261 C 893.431772 256.973319 894.521466 256.60683 895.664911 256.919568 C 896.603123 257.232305 897.223711 257.852893 897.536448 258.791105 C 897.741682 259.827047 897.277463 260.921627 896.134017 262.060186 C 884.186477 272.869167 874.105587 278.268771 865.896234 278.268771 C 862.573401 278.268771 859.871156 277.545566 857.794385 276.089384 C 855.820231 274.633201 854.574168 272.297445 854.056197 269.077228 C 849.482415 275.204924 845.275122 278.268771 841.429431 278.268771 C 837.378506 278.268771 835.194232 276.089384 834.886381 271.725722 C 834.886381 267.880031 835.976075 264.190709 838.155463 260.657755 C 840.129617 257.124801 842.626628 254.583811 845.636724 253.025011 C 848.651707 251.466212 851.3002 251.827814 853.587092 254.114705 C 854.315183 254.945414 854.4178 255.932491 853.899829 257.075936 C 853.274354 258.111878 852.389894 258.893721 851.246449 259.411692 C 850.10789 259.93455 849.120813 259.778181 848.285218 258.947473 C 847.562013 258.321999 846.677553 258.634736 845.636724 259.880798 C 844.600782 261.126861 843.66257 262.685661 842.831862 264.557198 C 841.898537 266.531351 841.429431 268.295385 841.429431 269.854185 C 841.429431 270.479659 841.532048 270.99763 841.742168 271.412984 C 841.947402 271.725722 842.211274 271.88209 842.519125 271.88209 C 842.626628 271.984707 842.831862 272.038459 843.144599 272.038459 C 843.559953 272.038459 844.288045 271.569353 845.323987 270.636028 C 846.262199 269.907936 847.718382 268.192768 849.692535 265.490523 C 851.661803 262.895781 853.948694 259.206459 856.548322 254.427443 C 857.16891 253.18138 858.004505 252.399537 859.040447 252.0868 C 860.183893 251.774062 861.117218 251.827814 861.84531 252.243168 C 862.573401 252.658522 862.832387 253.596734 862.627153 255.048031 L 862.314415 255.986242 C 861.068353 260.037167 860.49663 263.516369 860.599247 266.423848 C 860.599247 269.541447 862.470784 271.359233 866.208972 271.88209 C 872.654291 272.502678 881.381615 267.880031 892.390943 258.009261 Z M 953.799834 258.009261 C 954.938393 256.973319 956.081839 256.60683 957.225284 256.919568 C 958.266113 257.232305 958.837836 257.852893 958.940453 258.791105 C 959.150573 259.827047 958.681467 260.921627 957.538022 262.060186 C 945.795715 272.869167 935.768577 278.268771 927.456607 278.268771 C 923.92854 278.268771 921.118792 277.491815 919.042021 275.933015 C 916.862633 274.271598 915.719187 271.774587 915.616571 268.451754 C 911.77088 272.815416 908.394295 275.517661 905.481929 276.55849 C 902.369216 277.697049 900.13119 278.268771 898.782511 278.268771 C 895.352174 278.268771 893.070169 277.076461 891.926724 274.686953 C 890.783278 272.194828 890.416789 269.282462 890.832143 265.959629 C 891.042264 264.190709 891.403866 262.402242 891.926724 260.579571 C 892.444695 258.761785 893.119035 256.865816 893.949743 254.891662 C 894.575217 253.542983 895.459677 252.712274 896.603123 252.399537 C 897.741682 252.0868 898.728759 252.243168 899.564354 252.868643 C 900.287559 253.386614 900.395062 254.373691 899.872205 255.829874 C 899.45685 256.865816 899.070815 257.960396 898.704326 259.098955 C 898.342724 260.242401 898.005554 261.439598 897.692817 262.685661 C 897.067342 265.177786 896.910974 267.36206 897.223711 269.233597 C 897.536448 271.100247 898.577277 272.038459 900.34131 272.038459 C 905.745801 272.038459 911.614511 266.115997 917.952327 254.271074 C 918.783035 253.025011 919.667495 252.243168 920.60082 251.930431 C 921.846883 251.725197 922.785095 251.827814 923.405683 252.243168 C 924.133774 252.658522 924.343894 253.596734 924.031157 255.048031 C 923.92854 255.463385 923.850356 255.829874 923.796604 256.137724 C 923.742853 256.450462 923.664668 256.816951 923.562051 257.232305 C 922.418606 260.867875 921.954386 264.088092 922.15962 266.892954 C 922.369741 269.80532 924.236391 271.466736 927.769345 271.88209 C 934.317281 272.502678 942.990853 267.880031 953.799834 258.009261 Z M 1015.980795 257.075936 C 1017.021624 256.035107 1018.111318 255.673505 1019.254763 255.986242 C 1020.398209 256.294093 1021.018797 256.919568 1021.1263 257.852893 C 1021.331534 258.996338 1020.91618 260.086032 1019.880238 261.126861 C 1017.593347 263.413752 1015.203839 265.514955 1012.706827 267.440244 C 1010.214702 269.360646 1007.668826 271.207751 1005.074084 272.971784 C 999.98233 276.504738 994.57784 278.268771 988.865498 278.268771 C 984.917191 278.268771 982.112328 277.130212 980.446025 274.843321 C 978.887226 272.659047 978.007652 269.697816 977.797532 265.959629 C 977.694915 262.324058 978.007652 258.580984 978.735743 254.735293 C 975.095286 261.801201 971.459716 267.464677 967.824145 271.725722 C 963.978454 276.089384 960.13765 278.268771 956.291959 278.268771 C 952.343651 278.268771 950.266881 275.67403 950.05676 270.479659 C 950.266881 265.905877 951.459191 261.801201 953.643466 258.16563 C 955.822853 254.632676 958.36873 252.399537 961.276209 251.466212 C 964.085958 250.528 966.475466 251.62258 968.44962 254.735293 C 968.967591 255.986242 968.864974 257.022184 968.136883 257.852893 C 967.408791 258.893721 966.475466 259.568061 965.33202 259.880798 C 964.188575 260.193536 963.250363 259.827047 962.527158 258.791105 C 962.004301 257.960396 961.432578 257.804028 960.81199 258.321999 C 960.083898 258.737353 959.458424 259.621813 958.940453 260.970492 C 958.627716 261.698584 958.344297 262.402242 958.085312 263.076582 C 957.82144 263.750922 957.591773 264.449694 957.381653 265.177786 C 957.176419 265.905877 957.020051 266.555784 956.912547 267.127507 C 956.80993 267.69923 956.707313 268.24652 956.604696 268.764491 C 956.604696 269.179845 956.629129 269.541447 956.682881 269.854185 C 956.731746 270.166922 956.80993 270.528524 956.912547 270.943879 C 957.020051 271.67197 957.381653 272.038459 958.007128 272.038459 C 961.124727 272.038459 964.760298 268.398002 968.913839 261.126861 C 973.174884 253.958337 977.225809 245.387381 981.0715 235.413995 C 983.045654 230.527475 984.917191 225.748459 986.681224 221.07206 C 988.450144 216.400548 990.057809 211.826765 991.513992 207.360486 C 992.970175 202.996824 994.186918 199.25375 995.173995 196.136151 C 996.161072 193.023438 996.913596 190.580178 997.436454 188.811258 C 997.954425 187.047225 998.838885 185.850027 1000.084947 185.229439 C 1001.228393 184.603965 1002.21547 184.603965 1003.046178 185.229439 C 1003.876886 185.957531 1004.087007 187.149842 1003.671653 188.811258 C 1002.420704 193.282424 1001.125776 197.802454 999.77221 202.37135 C 998.423531 206.945132 997.0211 211.514028 995.564917 216.08781 C 992.447317 226.061197 989.798824 235.257626 987.614549 243.672213 C 985.225041 252.0868 984.135348 258.893721 984.345468 264.088092 C 984.345468 269.385079 986.422239 272.038459 990.57578 272.038459 C 994.421471 272.038459 998.320914 270.738645 1002.269222 268.139016 C 1004.345992 266.790337 1006.500947 265.207105 1008.734087 263.389319 C 1010.967226 261.566648 1013.386053 259.465444 1015.980795 257.075936 Z M 1014.421996 362.585666 C 1019.308515 358.011884 1024.346517 348.869206 1029.540887 335.157632 C 1032.033012 328.404462 1034.398088 321.519356 1036.631227 314.5072 C 1038.864366 307.490158 1040.970456 300.350953 1042.94461 293.074926 C 1037.852857 298.792153 1033.332826 304.504495 1029.384518 310.221723 C 1025.436211 315.934064 1021.957009 321.700157 1018.942026 327.520002 C 1013.122181 339.052188 1009.799348 348.404986 1008.96864 355.57351 C 1008.553286 358.48099 1008.812271 360.816746 1009.745596 362.585666 C 1010.581191 364.247083 1012.135104 364.247083 1014.421996 362.585666 Z M 1088.609135 256.137724 C 1089.957815 255.72237 1090.998643 255.932491 1091.726735 256.763199 C 1092.244706 257.593907 1092.298458 258.532119 1091.878217 259.568061 C 1091.360246 260.814124 1090.426921 261.644832 1089.073355 262.060186 C 1075.361781 266.218614 1062.891383 273.597259 1051.671934 284.191233 C 1049.072306 294.062003 1046.423812 303.361049 1043.721567 312.088373 C 1041.019321 320.815697 1038.268211 328.922433 1035.463349 336.403694 C 1029.746121 351.468834 1023.823659 361.652341 1017.695964 366.949328 C 1013.747656 369.964311 1010.112085 370.795019 1006.784366 369.441453 C 1003.461532 368.092774 1002.005349 363.831729 1002.420704 356.663204 C 1002.943561 351.884188 1004.316673 346.587201 1006.554699 340.767356 C 1008.787839 334.947512 1011.827254 328.555944 1015.668058 321.59754 C 1019.513749 314.63425 1023.931163 307.856647 1028.915413 301.259846 C 1033.904549 294.663044 1039.568025 288.247044 1045.905841 282.011845 L 1049.956766 266.580217 C 1050.059383 266.164862 1050.137567 265.80326 1050.191319 265.490523 C 1050.240184 265.177786 1050.318368 264.816183 1050.425872 264.400829 C 1047.308272 267.103074 1044.395906 269.360646 1041.698548 271.178432 C 1038.996302 272.996217 1036.504177 274.374215 1034.217286 275.307541 C 1029.540887 277.179078 1025.748948 278.117289 1022.836582 278.117289 C 1019.098395 278.117289 1016.60627 276.920092 1015.360207 274.530584 C 1014.216762 272.243693 1013.850273 269.336214 1014.265627 265.80326 C 1014.680981 262.372923 1015.775562 258.683601 1017.539595 254.735293 C 1018.16507 253.386614 1019.044643 252.555906 1020.188089 252.243168 C 1021.331534 251.930431 1022.318611 252.0868 1023.14932 252.712274 C 1023.877411 253.230245 1023.980028 254.271074 1023.462057 255.829874 C 1023.046703 256.865816 1022.631348 257.960396 1022.215994 259.098955 C 1021.80064 260.242401 1021.434151 261.385846 1021.1263 262.529292 C 1020.500826 265.12892 1020.398209 267.259443 1020.813563 268.92086 C 1021.1263 270.792396 1022.318611 271.725722 1024.395382 271.725722 C 1025.748948 271.725722 1027.825719 271.310368 1030.630581 270.479659 C 1033.230209 269.751568 1036.396674 268.036399 1040.139748 265.334154 C 1043.980552 262.739412 1048.344214 258.947473 1053.230734 253.958337 C 1054.579413 252.609657 1055.981844 252.0868 1057.438027 252.399537 C 1058.786707 252.814891 1059.255812 254.012088 1058.840458 255.986242 C 1058.630338 256.816951 1058.400671 257.852893 1058.136799 259.098955 C 1057.877814 260.349904 1057.540644 261.698584 1057.12529 263.154766 C 1056.709936 264.606063 1056.24083 266.296799 1055.722859 268.217201 C 1055.204888 270.142489 1054.68203 272.243693 1054.164059 274.530584 C 1064.76292 265.80326 1076.241354 259.670678 1088.609135 256.137724 Z M 1141.129447 258.009261 C 1142.170276 256.973319 1143.25997 256.60683 1144.403415 256.919568 C 1145.336741 257.232305 1145.962215 257.852893 1146.270066 258.791105 C 1146.480186 259.827047 1146.01108 260.921627 1144.867635 262.060186 C 1132.920094 272.869167 1122.844091 278.268771 1114.634738 278.268771 C 1111.311905 278.268771 1108.60966 277.545566 1106.528002 276.089384 C 1104.553849 274.633201 1103.307786 272.297445 1102.789815 269.077228 C 1098.216033 275.204924 1094.008739 278.268771 1090.167935 278.268771 C 1086.112124 278.268771 1083.932736 276.089384 1083.619999 271.725722 C 1083.619999 267.880031 1084.709693 264.190709 1086.893967 260.657755 C 1088.868121 257.124801 1091.360246 254.583811 1094.375228 253.025011 C 1097.385324 251.466212 1100.038704 251.827814 1102.320709 254.114705 C 1103.048801 254.945414 1103.151417 255.932491 1102.633446 257.075936 C 1102.012858 258.111878 1101.128398 258.893721 1099.984953 259.411692 C 1098.841507 259.93455 1097.85443 259.778181 1097.023722 258.947473 C 1096.295631 258.321999 1095.41117 258.634736 1094.375228 259.880798 C 1093.3344 261.126861 1092.401074 262.685661 1091.570366 264.557198 C 1090.632154 266.531351 1090.167935 268.295385 1090.167935 269.854185 C 1090.167935 270.479659 1090.270552 270.99763 1090.475786 271.412984 C 1090.685906 271.725722 1090.944892 271.88209 1091.257629 271.88209 C 1091.360246 271.984707 1091.570366 272.038459 1091.878217 272.038459 C 1092.298458 272.038459 1093.021662 271.569353 1094.062491 270.636028 C 1094.995816 269.907936 1096.451999 268.192768 1098.426153 265.490523 C 1100.400307 262.895781 1102.687198 259.206459 1105.28194 254.427443 C 1105.907414 253.18138 1106.738123 252.399537 1107.778951 252.0868 C 1108.922397 251.774062 1109.855722 251.827814 1110.583814 252.243168 C 1111.311905 252.658522 1111.570891 253.596734 1111.36077 255.048031 L 1111.048033 255.986242 C 1109.801971 260.037167 1109.230248 263.516369 1109.337751 266.423848 C 1109.337751 269.541447 1111.204402 271.359233 1114.947476 271.88209 C 1121.387908 272.502678 1130.115232 267.880031 1141.129447 258.009261 Z M 1183.98911 257.696524 C 1185.235173 256.763199 1186.324867 256.450462 1187.258192 256.763199 C 1188.29902 257.28117 1188.870743 258.009261 1188.97336 258.947473 C 1189.080864 259.880798 1188.509141 260.921627 1187.258192 262.060186 C 1180.612525 267.464677 1174.846432 271.515601 1169.959913 274.217847 C 1165.07828 276.920092 1160.040278 278.268771 1154.845908 278.268771 C 1147.78 278.268771 1143.465204 275.830398 1141.906404 270.943879 C 1140.14237 266.062246 1140.298739 258.791105 1142.37551 249.125569 C 1143.416338 244.346553 1144.662401 238.971381 1146.113697 232.995168 C 1147.56988 227.023841 1149.285048 220.500337 1151.259202 213.439317 C 1151.884677 211.357659 1152.505265 209.178272 1153.130739 206.89138 C 1153.751327 204.604489 1154.376802 202.317598 1154.99739 200.035594 C 1155.20751 198.994765 1155.466496 197.983255 1155.779233 196.996178 C 1156.09197 196.009101 1156.350956 194.992705 1156.556189 193.956763 L 1158.271358 188.034302 C 1158.794215 186.475502 1159.571172 185.488425 1160.612001 185.073071 C 1161.755446 184.5551 1162.791388 184.5551 1163.724714 185.073071 C 1164.560308 185.591042 1164.819294 186.578119 1164.506557 188.034302 L 1162.947757 193.956763 C 1162.63502 194.992705 1162.322283 196.009101 1162.014432 196.996178 C 1161.701695 197.983255 1161.442709 198.994765 1161.232589 200.035594 C 1160.504497 202.527719 1159.830158 204.941659 1159.20957 207.282302 C 1158.584095 209.618058 1157.958621 211.929382 1157.338033 214.216273 C 1155.676616 220.241352 1154.196001 225.851076 1152.896186 231.050333 C 1151.596372 236.244703 1150.482246 240.969968 1149.544034 245.231013 C 1148.508092 249.492058 1147.858185 253.283997 1147.594313 256.60683 C 1147.335327 259.93455 1147.413511 262.739412 1147.828866 265.021417 C 1148.659574 269.697816 1151.57194 272.038459 1156.556189 272.038459 C 1160.196647 272.038459 1163.988586 270.99763 1167.936893 268.92086 C 1169.911047 267.880031 1172.246804 266.423848 1174.949049 264.557198 C 1177.651294 262.685661 1180.66139 260.398769 1183.98911 257.696524 Z M 1183.98911 257.696524 " stroke="#804d00" stroke-width="23.939026" stroke-opacity="1" stroke-miterlimit="4"/><g fill="#ffbd59" fill-opacity="1"><g transform="translate(25.398229, 271.588834)"><g><path d="M 39.5 -59.921875 C 45.644531 -60.003906 52.367188 -60.023438 59.671875 -59.984375 C 66.984375 -59.941406 74.914062 -59.835938 83.46875 -59.671875 C 87.375 -59.585938 91.238281 -59.546875 95.0625 -59.546875 C 98.882812 -59.546875 102.660156 -59.546875 106.390625 -59.546875 C 111.128906 -85.210938 113 -105.359375 112 -119.984375 C 111.007812 -134.597656 107.066406 -141.90625 100.171875 -141.90625 C 94.929688 -141.90625 89.035156 -139.25 82.484375 -133.9375 C 75.835938 -128.613281 68.816406 -119.890625 61.421875 -107.765625 C 57.765625 -101.703125 54.109375 -94.679688 50.453125 -86.703125 C 46.796875 -78.734375 43.144531 -69.804688 39.5 -59.921875 Z M 136.546875 -59.421875 C 137.710938 -59.421875 138.335938 -59.007812 138.421875 -58.1875 C 138.503906 -57.351562 138.253906 -56.519531 137.671875 -55.6875 C 137.003906 -54.78125 136.171875 -54.328125 135.171875 -54.328125 C 130.859375 -54.328125 126.625 -54.328125 122.46875 -54.328125 C 118.3125 -54.328125 114.285156 -54.363281 110.390625 -54.4375 C 108.222656 -43.8125 106.164062 -34.320312 104.21875 -25.96875 C 102.269531 -17.625 100.460938 -10.503906 98.796875 -4.609375 C 98.460938 -3.609375 97.835938 -2.898438 96.921875 -2.484375 C 96.015625 -2.078125 95.226562 -2.078125 94.5625 -2.484375 C 93.8125 -2.816406 93.5625 -3.523438 93.8125 -4.609375 C 96.21875 -13.660156 98.394531 -22.335938 100.34375 -30.640625 C 102.300781 -38.953125 103.988281 -46.882812 105.40625 -54.4375 C 100.582031 -54.519531 95.90625 -54.5625 91.375 -54.5625 C 86.851562 -54.5625 82.515625 -54.601562 78.359375 -54.6875 C 70.554688 -54.851562 63.25 -54.957031 56.4375 -55 C 49.625 -55.039062 43.394531 -55.019531 37.75 -54.9375 C 34.09375 -44.394531 30.476562 -32.476562 26.90625 -19.1875 C 26.570312 -18.1875 25.953125 -17.476562 25.046875 -17.0625 C 24.128906 -16.65625 23.335938 -16.65625 22.671875 -17.0625 C 22.003906 -17.394531 21.710938 -18.101562 21.796875 -19.1875 C 23.546875 -25.582031 25.332031 -31.726562 27.15625 -37.625 C 28.988281 -43.519531 30.859375 -49.25 32.765625 -54.8125 C 17.984375 -54.644531 9.015625 -53.859375 5.859375 -52.453125 C 5.941406 -52.203125 6.066406 -51.929688 6.234375 -51.640625 C 6.398438 -51.347656 6.566406 -51.035156 6.734375 -50.703125 C 6.898438 -50.367188 7.101562 -50.078125 7.34375 -49.828125 C 7.59375 -49.585938 7.800781 -49.382812 7.96875 -49.21875 C 8.71875 -48.550781 8.925781 -47.800781 8.59375 -46.96875 C 8.175781 -46.050781 7.554688 -45.347656 6.734375 -44.859375 C 5.816406 -44.359375 4.941406 -44.394531 4.109375 -44.96875 C 2.617188 -46.132812 1.539062 -47.796875 0.875 -49.953125 C 0.289062 -51.953125 0.953125 -53.863281 2.859375 -55.6875 C 5.679688 -58.425781 16.234375 -59.835938 34.515625 -59.921875 C 39.492188 -73.710938 44.679688 -85.941406 50.078125 -96.609375 C 55.484375 -107.285156 61.09375 -116.445312 66.90625 -124.09375 C 78.53125 -139.289062 90.078125 -146.890625 101.546875 -146.890625 C 106.859375 -146.890625 110.757812 -144.316406 113.25 -139.171875 C 115.570312 -134.097656 116.941406 -127.285156 117.359375 -118.734375 C 117.523438 -114.492188 117.503906 -110.046875 117.296875 -105.390625 C 117.085938 -100.742188 116.691406 -95.847656 116.109375 -90.703125 C 115.535156 -85.546875 114.851562 -80.375 114.0625 -75.1875 C 113.269531 -70 112.375 -64.742188 111.375 -59.421875 Z M 136.546875 -59.421875 "/></g></g><g transform="translate(175.523274, 271.588834)"><g><path d="M 49.953125 -62.296875 C 50.785156 -63.128906 51.660156 -63.421875 52.578125 -63.171875 C 53.492188 -62.921875 53.992188 -62.421875 54.078125 -61.671875 C 54.242188 -60.753906 53.910156 -59.882812 53.078125 -59.0625 C 51.242188 -57.226562 49.332031 -55.539062 47.34375 -54 C 45.351562 -52.46875 43.316406 -51 41.234375 -49.59375 C 37.171875 -46.757812 32.851562 -45.34375 28.28125 -45.34375 C 25.125 -45.34375 22.878906 -46.257812 21.546875 -48.09375 C 20.304688 -49.832031 19.601562 -52.195312 19.4375 -55.1875 C 19.351562 -58.09375 19.601562 -61.082031 20.1875 -64.15625 C 17.28125 -58.507812 14.375 -53.984375 11.46875 -50.578125 C 8.394531 -47.085938 5.320312 -45.34375 2.25 -45.34375 C -0.90625 -45.34375 -2.566406 -47.421875 -2.734375 -51.578125 C -2.566406 -55.234375 -1.613281 -58.515625 0.125 -61.421875 C 1.863281 -64.242188 3.898438 -66.03125 6.234375 -66.78125 C 8.472656 -67.53125 10.378906 -66.65625 11.953125 -64.15625 C 12.367188 -63.164062 12.289062 -62.335938 11.71875 -61.671875 C 11.132812 -60.835938 10.382812 -60.296875 9.46875 -60.046875 C 8.550781 -59.796875 7.800781 -60.085938 7.21875 -60.921875 C 6.8125 -61.585938 6.359375 -61.710938 5.859375 -61.296875 C 5.273438 -60.960938 4.773438 -60.253906 4.359375 -59.171875 C 4.109375 -58.597656 3.878906 -58.039062 3.671875 -57.5 C 3.460938 -56.957031 3.273438 -56.394531 3.109375 -55.8125 C 2.941406 -55.226562 2.816406 -54.707031 2.734375 -54.25 C 2.648438 -53.800781 2.566406 -53.367188 2.484375 -52.953125 C 2.484375 -52.617188 2.503906 -52.328125 2.546875 -52.078125 C 2.585938 -51.828125 2.648438 -51.535156 2.734375 -51.203125 C 2.816406 -50.617188 3.109375 -50.328125 3.609375 -50.328125 C 6.097656 -50.328125 9.003906 -53.238281 12.328125 -59.0625 C 15.734375 -64.789062 18.972656 -71.640625 22.046875 -79.609375 C 23.628906 -83.515625 25.125 -87.335938 26.53125 -91.078125 C 27.945312 -94.816406 29.238281 -98.46875 30.40625 -102.03125 C 31.5625 -105.519531 32.535156 -108.507812 33.328125 -111 C 34.117188 -113.5 34.722656 -115.453125 35.140625 -116.859375 C 35.546875 -118.273438 36.25 -119.234375 37.25 -119.734375 C 38.164062 -120.234375 38.957031 -120.234375 39.625 -119.734375 C 40.28125 -119.148438 40.445312 -118.191406 40.125 -116.859375 C 39.125 -113.285156 38.082031 -109.671875 37 -106.015625 C 35.925781 -102.367188 34.804688 -98.71875 33.640625 -95.0625 C 31.148438 -87.082031 29.03125 -79.734375 27.28125 -73.015625 C 25.375 -66.285156 24.503906 -60.84375 24.671875 -56.6875 C 24.671875 -52.445312 26.332031 -50.328125 29.65625 -50.328125 C 32.726562 -50.328125 35.84375 -51.367188 39 -53.453125 C 40.65625 -54.523438 42.375 -55.785156 44.15625 -57.234375 C 45.945312 -58.691406 47.878906 -60.378906 49.953125 -62.296875 Z M 49.953125 -62.296875 "/></g></g><g transform="translate(225.606483, 271.588834)"><g><path d="M 42.859375 -61.546875 C 43.691406 -62.378906 44.5625 -62.671875 45.46875 -62.421875 C 46.21875 -62.171875 46.71875 -61.671875 46.96875 -60.921875 C 47.132812 -60.085938 46.757812 -59.21875 45.84375 -58.3125 C 36.289062 -49.664062 28.234375 -45.34375 21.671875 -45.34375 C 19.015625 -45.34375 16.859375 -45.925781 15.203125 -47.09375 C 13.617188 -48.257812 12.617188 -50.128906 12.203125 -52.703125 C 8.554688 -47.796875 5.195312 -45.34375 2.125 -45.34375 C -1.113281 -45.34375 -2.859375 -47.085938 -3.109375 -50.578125 C -3.109375 -53.648438 -2.238281 -56.597656 -0.5 -59.421875 C 1.082031 -62.253906 3.078125 -64.289062 5.484375 -65.53125 C 7.890625 -66.78125 10.003906 -66.488281 11.828125 -64.65625 C 12.410156 -64 12.492188 -63.210938 12.078125 -62.296875 C 11.585938 -61.460938 10.882812 -60.835938 9.96875 -60.421875 C 9.050781 -60.003906 8.257812 -60.128906 7.59375 -60.796875 C 7.019531 -61.296875 6.316406 -61.046875 5.484375 -60.046875 C 4.648438 -59.054688 3.898438 -57.8125 3.234375 -56.3125 C 2.492188 -54.738281 2.125 -53.328125 2.125 -52.078125 C 2.125 -51.578125 2.203125 -51.160156 2.359375 -50.828125 C 2.523438 -50.578125 2.734375 -50.453125 2.984375 -50.453125 C 3.066406 -50.367188 3.234375 -50.328125 3.484375 -50.328125 C 3.816406 -50.328125 4.398438 -50.703125 5.234375 -51.453125 C 5.984375 -52.035156 7.144531 -53.40625 8.71875 -55.5625 C 10.300781 -57.644531 12.128906 -60.59375 14.203125 -64.40625 C 14.703125 -65.40625 15.367188 -66.03125 16.203125 -66.28125 C 17.109375 -66.53125 17.851562 -66.488281 18.4375 -66.15625 C 19.019531 -65.820312 19.226562 -65.070312 19.0625 -63.90625 L 18.8125 -63.171875 C 17.8125 -59.929688 17.351562 -57.144531 17.4375 -54.8125 C 17.4375 -52.320312 18.929688 -50.867188 21.921875 -50.453125 C 27.078125 -49.953125 34.054688 -53.648438 42.859375 -61.546875 Z M 42.859375 -61.546875 "/></g></g></g><g fill="#ffbd59" fill-opacity="1"><g transform="translate(268.463742, 271.588834)"><g><path d="M 40.859375 -62.421875 C 41.941406 -63.003906 42.816406 -63.085938 43.484375 -62.671875 C 44.148438 -62.171875 44.484375 -61.503906 44.484375 -60.671875 C 44.316406 -59.671875 43.734375 -58.882812 42.734375 -58.3125 C 38.828125 -56.144531 34.71875 -54.609375 30.40625 -53.703125 C 25.914062 -52.785156 22.550781 -52.578125 20.3125 -53.078125 C 18.3125 -53.578125 16.941406 -54.53125 16.203125 -55.9375 C 15.785156 -56.601562 15.429688 -57.289062 15.140625 -58 C 14.847656 -58.707031 14.617188 -59.390625 14.453125 -60.046875 C 14.367188 -60.378906 14.285156 -60.691406 14.203125 -60.984375 C 14.117188 -61.273438 14.035156 -61.503906 13.953125 -61.671875 C 13.785156 -62.085938 13.535156 -62.296875 13.203125 -62.296875 C 12.617188 -62.296875 11.875 -61.671875 10.96875 -60.421875 C 10.21875 -59.179688 9.425781 -57.769531 8.59375 -56.1875 C 7.757812 -54.613281 7.097656 -53.285156 6.609375 -52.203125 C 5.773438 -49.960938 4.898438 -48.21875 3.984375 -46.96875 C 3.148438 -45.632812 1.988281 -44.96875 0.5 -44.96875 C -1.570312 -44.96875 -2.488281 -46.46875 -2.25 -49.46875 C -2.082031 -52.457031 -1.082031 -57.234375 0.75 -63.796875 C 1.082031 -64.867188 1.742188 -65.613281 2.734375 -66.03125 C 3.566406 -66.363281 4.359375 -66.363281 5.109375 -66.03125 C 5.773438 -65.695312 6.023438 -64.953125 5.859375 -63.796875 C 5.523438 -62.710938 5.234375 -61.734375 4.984375 -60.859375 C 4.734375 -59.984375 4.523438 -59.132812 4.359375 -58.3125 C 5.523438 -60.550781 6.976562 -62.664062 8.71875 -64.65625 C 10.382812 -66.40625 12.335938 -67.28125 14.578125 -67.28125 C 16.484375 -67.28125 17.726562 -66.78125 18.3125 -65.78125 C 18.894531 -64.863281 19.3125 -63.703125 19.5625 -62.296875 C 19.726562 -61.796875 19.894531 -61.316406 20.0625 -60.859375 C 20.226562 -60.398438 20.394531 -59.960938 20.5625 -59.546875 C 20.894531 -58.722656 21.597656 -58.1875 22.671875 -57.9375 C 24.335938 -57.601562 27 -57.8125 30.65625 -58.5625 C 32.394531 -58.894531 34.113281 -59.390625 35.8125 -60.046875 C 37.519531 -60.710938 39.203125 -61.503906 40.859375 -62.421875 Z M 40.859375 -62.421875 "/></g></g><g transform="translate(308.953899, 271.588834)"><g><path d="M 10.96875 -35.875 C 11.875 -36.957031 12.039062 -38.082031 11.46875 -39.25 C 11.132812 -39.90625 10.820312 -40.503906 10.53125 -41.046875 C 10.238281 -41.585938 9.882812 -42.066406 9.46875 -42.484375 C 8.800781 -42.148438 8.050781 -41.691406 7.21875 -41.109375 C 6.394531 -40.523438 5.523438 -39.90625 4.609375 -39.25 C 3.609375 -38.582031 2.671875 -37.875 1.796875 -37.125 C 0.929688 -36.375 0.0820312 -35.628906 -0.75 -34.890625 C -2.320312 -33.390625 -3.191406 -32.015625 -3.359375 -30.765625 C -3.273438 -29.691406 -1.863281 -29.40625 0.875 -29.90625 C 3.613281 -30.40625 6.976562 -32.394531 10.96875 -35.875 Z M 44.609375 -63.046875 C 45.679688 -63.378906 46.46875 -63.253906 46.96875 -62.671875 C 47.382812 -62.003906 47.46875 -61.210938 47.21875 -60.296875 C 46.800781 -59.304688 46.050781 -58.644531 44.96875 -58.3125 C 39.40625 -56.394531 34.085938 -54.335938 29.015625 -52.140625 C 23.953125 -49.941406 19.140625 -47.632812 14.578125 -45.21875 C 16.066406 -43.226562 16.851562 -41.195312 16.9375 -39.125 C 17.019531 -36.875 16.023438 -34.710938 13.953125 -32.640625 C 8.054688 -27.492188 2.820312 -24.835938 -1.75 -24.671875 C -6.3125 -24.585938 -8.59375 -26.289062 -8.59375 -29.78125 C -8.257812 -32.851562 -6.429688 -35.84375 -3.109375 -38.75 C -0.0351562 -41.570312 3.160156 -43.9375 6.484375 -45.84375 C 6.234375 -46.09375 5.984375 -46.34375 5.734375 -46.59375 C 5.484375 -46.84375 5.191406 -47.09375 4.859375 -47.34375 C 4.023438 -48.175781 3.296875 -48.960938 2.671875 -49.703125 C 2.054688 -50.453125 1.457031 -51.160156 0.875 -51.828125 C -1.695312 -55.648438 -1.28125 -59.675781 2.125 -63.90625 C 4.78125 -66.820312 8.097656 -68.984375 12.078125 -70.390625 C 15.984375 -71.804688 19.222656 -72.054688 21.796875 -71.140625 C 24.460938 -70.222656 25.378906 -67.976562 24.546875 -64.40625 C 24.210938 -63.414062 23.585938 -62.710938 22.671875 -62.296875 C 21.753906 -61.878906 20.96875 -61.878906 20.3125 -62.296875 C 19.5625 -62.628906 19.3125 -63.332031 19.5625 -64.40625 C 19.8125 -65.90625 19.101562 -66.65625 17.4375 -66.65625 C 15.695312 -66.65625 13.707031 -66.15625 11.46875 -65.15625 C 9.132812 -64.164062 7.265625 -62.921875 5.859375 -61.421875 C 5.191406 -60.753906 4.734375 -59.925781 4.484375 -58.9375 C 4.234375 -57.9375 4.566406 -56.726562 5.484375 -55.3125 C 5.898438 -54.726562 6.394531 -54.101562 6.96875 -53.4375 C 7.550781 -52.78125 8.257812 -52.078125 9.09375 -51.328125 C 9.507812 -50.910156 9.925781 -50.472656 10.34375 -50.015625 C 10.757812 -49.566406 11.175781 -49.132812 11.59375 -48.71875 C 21.144531 -54.03125 32.148438 -58.804688 44.609375 -63.046875 Z M 44.609375 -63.046875 "/></g></g><g transform="translate(352.558684, 271.588834)"><g><path d="M 57.3125 -62.046875 C 58.476562 -62.796875 59.390625 -63.003906 60.046875 -62.671875 C 60.710938 -62.335938 61.085938 -61.710938 61.171875 -60.796875 C 61.171875 -59.878906 60.671875 -59.050781 59.671875 -58.3125 C 57.429688 -56.644531 55.191406 -55.0625 52.953125 -53.5625 C 50.710938 -52.070312 48.425781 -50.664062 46.09375 -49.34375 C 41.445312 -46.675781 36.878906 -45.34375 32.390625 -45.34375 C 29.816406 -45.34375 27.988281 -45.882812 26.90625 -46.96875 C 25.832031 -48.050781 25.171875 -49.378906 24.921875 -50.953125 C 24.671875 -52.453125 24.546875 -53.90625 24.546875 -55.3125 C 24.628906 -57.5625 24.503906 -59.097656 24.171875 -59.921875 C 23.835938 -60.671875 23.085938 -61.046875 21.921875 -61.046875 C 19.765625 -61.046875 17.109375 -59.84375 13.953125 -57.4375 C 12.378906 -56.1875 10.78125 -54.851562 9.15625 -53.4375 C 7.539062 -52.03125 5.898438 -50.539062 4.234375 -48.96875 C 3.734375 -48.550781 3.234375 -48.132812 2.734375 -47.71875 C 2.242188 -47.300781 1.789062 -46.882812 1.375 -46.46875 C 0.375 -45.632812 -0.664062 -45.257812 -1.75 -45.34375 C -2.90625 -45.507812 -3.523438 -46.09375 -3.609375 -47.09375 C -3.691406 -47.757812 -3.523438 -49.171875 -3.109375 -51.328125 C -2.691406 -53.484375 -2.03125 -56.347656 -1.125 -59.921875 C -0.207031 -63.578125 1.078125 -68.5 2.734375 -74.6875 C 4.398438 -80.875 6.394531 -88.367188 8.71875 -97.171875 C 9.632812 -100.578125 10.566406 -103.984375 11.515625 -107.390625 C 12.472656 -110.796875 13.410156 -114.160156 14.328125 -117.484375 C 14.742188 -118.648438 15.367188 -119.398438 16.203125 -119.734375 C 17.109375 -120.148438 17.9375 -120.148438 18.6875 -119.734375 C 19.351562 -119.316406 19.5625 -118.566406 19.3125 -117.484375 C 18.394531 -114.160156 17.476562 -110.796875 16.5625 -107.390625 C 15.65625 -103.984375 14.742188 -100.578125 13.828125 -97.171875 C 12.742188 -93.109375 11.640625 -89.019531 10.515625 -84.90625 C 9.398438 -80.789062 8.300781 -76.703125 7.21875 -72.640625 C 6.144531 -68.566406 5.210938 -64.929688 4.421875 -61.734375 C 3.628906 -58.535156 2.941406 -55.773438 2.359375 -53.453125 C 6.015625 -56.941406 9.628906 -59.929688 13.203125 -62.421875 C 16.859375 -64.828125 20.222656 -66.03125 23.296875 -66.03125 C 25.535156 -66.03125 27.070312 -65.53125 27.90625 -64.53125 C 28.820312 -63.457031 29.40625 -62.253906 29.65625 -60.921875 C 29.738281 -60.171875 29.800781 -59.441406 29.84375 -58.734375 C 29.882812 -58.035156 29.863281 -57.351562 29.78125 -56.6875 C 29.78125 -54.28125 30.03125 -52.617188 30.53125 -51.703125 C 30.9375 -50.785156 31.972656 -50.328125 33.640625 -50.328125 C 37.378906 -50.328125 41.195312 -51.492188 45.09375 -53.828125 C 47.007812 -54.984375 48.960938 -56.222656 50.953125 -57.546875 C 52.953125 -58.878906 54.945312 -60.296875 56.9375 -61.796875 Z M 57.3125 -62.046875 "/></g></g><g transform="translate(409.244904, 271.588834)"><g><path d="M 42.859375 -61.546875 C 43.691406 -62.378906 44.5625 -62.671875 45.46875 -62.421875 C 46.21875 -62.171875 46.71875 -61.671875 46.96875 -60.921875 C 47.132812 -60.085938 46.757812 -59.21875 45.84375 -58.3125 C 36.289062 -49.664062 28.234375 -45.34375 21.671875 -45.34375 C 19.015625 -45.34375 16.859375 -45.925781 15.203125 -47.09375 C 13.617188 -48.257812 12.617188 -50.128906 12.203125 -52.703125 C 8.554688 -47.796875 5.195312 -45.34375 2.125 -45.34375 C -1.113281 -45.34375 -2.859375 -47.085938 -3.109375 -50.578125 C -3.109375 -53.648438 -2.238281 -56.597656 -0.5 -59.421875 C 1.082031 -62.253906 3.078125 -64.289062 5.484375 -65.53125 C 7.890625 -66.78125 10.003906 -66.488281 11.828125 -64.65625 C 12.410156 -64 12.492188 -63.210938 12.078125 -62.296875 C 11.585938 -61.460938 10.882812 -60.835938 9.96875 -60.421875 C 9.050781 -60.003906 8.257812 -60.128906 7.59375 -60.796875 C 7.019531 -61.296875 6.316406 -61.046875 5.484375 -60.046875 C 4.648438 -59.054688 3.898438 -57.8125 3.234375 -56.3125 C 2.492188 -54.738281 2.125 -53.328125 2.125 -52.078125 C 2.125 -51.578125 2.203125 -51.160156 2.359375 -50.828125 C 2.523438 -50.578125 2.734375 -50.453125 2.984375 -50.453125 C 3.066406 -50.367188 3.234375 -50.328125 3.484375 -50.328125 C 3.816406 -50.328125 4.398438 -50.703125 5.234375 -51.453125 C 5.984375 -52.035156 7.144531 -53.40625 8.71875 -55.5625 C 10.300781 -57.644531 12.128906 -60.59375 14.203125 -64.40625 C 14.703125 -65.40625 15.367188 -66.03125 16.203125 -66.28125 C 17.109375 -66.53125 17.851562 -66.488281 18.4375 -66.15625 C 19.019531 -65.820312 19.226562 -65.070312 19.0625 -63.90625 L 18.8125 -63.171875 C 17.8125 -59.929688 17.351562 -57.144531 17.4375 -54.8125 C 17.4375 -52.320312 18.929688 -50.867188 21.921875 -50.453125 C 27.078125 -49.953125 34.054688 -53.648438 42.859375 -61.546875 Z M 42.859375 -61.546875 "/></g></g></g><g fill="#3d3b3a" fill-opacity="1"><g transform="translate(452.111768, 271.588834)"><g/></g></g><g fill="#5e17eb" fill-opacity="1"><g transform="translate(516.150653, 271.588834)"><g><path d="M 46.84375 -53.328125 C 53.738281 -57.472656 60.21875 -61.867188 66.28125 -66.515625 C 72.34375 -71.171875 78.03125 -76.078125 83.34375 -81.234375 C 93.8125 -91.285156 102.117188 -101.171875 108.265625 -110.890625 C 114.328125 -120.441406 117.359375 -128.332031 117.359375 -134.5625 C 117.191406 -140.789062 113.375 -144.023438 105.90625 -144.265625 C 98.34375 -144.515625 86.171875 -140.445312 69.390625 -132.0625 C 67.398438 -127.25 65.363281 -121.582031 63.28125 -115.0625 C 61.207031 -108.539062 59.09375 -101.125 56.9375 -92.8125 C 54.78125 -84.507812 52.847656 -77.078125 51.140625 -70.515625 C 49.441406 -63.953125 48.007812 -58.222656 46.84375 -53.328125 Z M 74.75 -139.65625 C 91.113281 -147.300781 103.160156 -150.539062 110.890625 -149.375 C 118.691406 -148.21875 122.632812 -144.109375 122.71875 -137.046875 C 122.882812 -129.898438 119.769531 -121.097656 113.375 -110.640625 C 110.21875 -105.316406 106.414062 -99.957031 101.96875 -94.5625 C 97.53125 -89.164062 92.40625 -83.679688 86.59375 -78.109375 C 75.125 -66.984375 61.414062 -56.726562 45.46875 -47.34375 C 45.132812 -46.175781 44.757812 -44.640625 44.34375 -42.734375 C 43.9375 -40.828125 43.441406 -38.539062 42.859375 -35.875 C 42.273438 -33.21875 41.671875 -30.5625 41.046875 -27.90625 C 40.429688 -25.25 39.789062 -22.59375 39.125 -19.9375 C 38.539062 -17.28125 38 -14.890625 37.5 -12.765625 C 37 -10.648438 36.582031 -8.882812 36.25 -7.46875 L 35.75 -5.109375 C 35.425781 -4.023438 34.765625 -3.273438 33.765625 -2.859375 C 32.847656 -2.453125 32.054688 -2.453125 31.390625 -2.859375 C 30.648438 -3.273438 30.40625 -4.023438 30.65625 -5.109375 C 30.894531 -5.941406 31.140625 -6.851562 31.390625 -7.84375 C 31.472656 -8.34375 31.597656 -8.945312 31.765625 -9.65625 C 31.929688 -10.363281 32.097656 -11.128906 32.265625 -11.953125 C 32.679688 -14.117188 33.507812 -17.878906 34.75 -23.234375 C 36 -28.585938 37.664062 -35.585938 39.75 -44.234375 C 33.6875 -40.910156 27.535156 -38.039062 21.296875 -35.625 C 18.140625 -34.550781 16.109375 -35.09375 15.203125 -37.25 C 14.617188 -39 15.320312 -41.453125 17.3125 -44.609375 C 19.144531 -47.515625 22.46875 -50.628906 27.28125 -53.953125 C 28.445312 -54.609375 29.320312 -54.734375 29.90625 -54.328125 C 30.5625 -53.910156 30.890625 -53.285156 30.890625 -52.453125 C 30.890625 -51.535156 30.394531 -50.703125 29.40625 -49.953125 C 26 -47.546875 23.628906 -45.515625 22.296875 -43.859375 C 21.628906 -42.941406 21.128906 -42.171875 20.796875 -41.546875 C 20.472656 -40.921875 20.269531 -40.445312 20.1875 -40.125 C 20.851562 -40.28125 21.867188 -40.671875 23.234375 -41.296875 C 24.609375 -41.921875 26.332031 -42.691406 28.40625 -43.609375 C 32.5625 -45.515625 36.796875 -47.628906 41.109375 -49.953125 C 45.765625 -69.640625 49.921875 -86.046875 53.578125 -99.171875 C 57.234375 -112.296875 60.347656 -122.140625 62.921875 -128.703125 C 60.347656 -127.285156 57.398438 -125.578125 54.078125 -123.578125 C 50.753906 -121.585938 47.015625 -119.304688 42.859375 -116.734375 C 38.703125 -114.160156 34.710938 -111.460938 30.890625 -108.640625 C 27.078125 -105.816406 23.382812 -102.953125 19.8125 -100.046875 C 12.582031 -93.984375 8.179688 -88.457031 6.609375 -83.46875 C 6.023438 -81.476562 6.351562 -79.898438 7.59375 -78.734375 C 8.175781 -77.992188 8.300781 -77.207031 7.96875 -76.375 C 7.550781 -75.375 6.929688 -74.707031 6.109375 -74.375 C 5.191406 -73.957031 4.316406 -74.039062 3.484375 -74.625 C 1.160156 -76.707031 0.5 -79.65625 1.5 -83.46875 C 3.488281 -89.613281 8.472656 -96.09375 16.453125 -102.90625 C 20.347656 -106.3125 24.476562 -109.570312 28.84375 -112.6875 C 33.207031 -115.800781 37.710938 -118.8125 42.359375 -121.71875 C 47.015625 -124.625 51.3125 -127.21875 55.25 -129.5 C 59.195312 -131.789062 62.75 -133.722656 65.90625 -135.296875 C 67.320312 -138.035156 68.566406 -139.820312 69.640625 -140.65625 C 70.972656 -141.65625 72.21875 -142.070312 73.375 -141.90625 C 74.375 -141.65625 74.832031 -140.90625 74.75 -139.65625 Z M 74.75 -139.65625 "/></g></g><g transform="translate(598.999744, 271.588834)"><g><path d="M 42.859375 -61.546875 C 43.691406 -62.378906 44.5625 -62.671875 45.46875 -62.421875 C 46.21875 -62.171875 46.71875 -61.671875 46.96875 -60.921875 C 47.132812 -60.085938 46.757812 -59.21875 45.84375 -58.3125 C 36.289062 -49.664062 28.234375 -45.34375 21.671875 -45.34375 C 19.015625 -45.34375 16.859375 -45.925781 15.203125 -47.09375 C 13.617188 -48.257812 12.617188 -50.128906 12.203125 -52.703125 C 8.554688 -47.796875 5.195312 -45.34375 2.125 -45.34375 C -1.113281 -45.34375 -2.859375 -47.085938 -3.109375 -50.578125 C -3.109375 -53.648438 -2.238281 -56.597656 -0.5 -59.421875 C 1.082031 -62.253906 3.078125 -64.289062 5.484375 -65.53125 C 7.890625 -66.78125 10.003906 -66.488281 11.828125 -64.65625 C 12.410156 -64 12.492188 -63.210938 12.078125 -62.296875 C 11.585938 -61.460938 10.882812 -60.835938 9.96875 -60.421875 C 9.050781 -60.003906 8.257812 -60.128906 7.59375 -60.796875 C 7.019531 -61.296875 6.316406 -61.046875 5.484375 -60.046875 C 4.648438 -59.054688 3.898438 -57.8125 3.234375 -56.3125 C 2.492188 -54.738281 2.125 -53.328125 2.125 -52.078125 C 2.125 -51.578125 2.203125 -51.160156 2.359375 -50.828125 C 2.523438 -50.578125 2.734375 -50.453125 2.984375 -50.453125 C 3.066406 -50.367188 3.234375 -50.328125 3.484375 -50.328125 C 3.816406 -50.328125 4.398438 -50.703125 5.234375 -51.453125 C 5.984375 -52.035156 7.144531 -53.40625 8.71875 -55.5625 C 10.300781 -57.644531 12.128906 -60.59375 14.203125 -64.40625 C 14.703125 -65.40625 15.367188 -66.03125 16.203125 -66.28125 C 17.109375 -66.53125 17.851562 -66.488281 18.4375 -66.15625 C 19.019531 -65.820312 19.226562 -65.070312 19.0625 -63.90625 L 18.8125 -63.171875 C 17.8125 -59.929688 17.351562 -57.144531 17.4375 -54.8125 C 17.4375 -52.320312 18.929688 -50.867188 21.921875 -50.453125 C 27.078125 -49.953125 34.054688 -53.648438 42.859375 -61.546875 Z M 42.859375 -61.546875 "/></g></g><g transform="translate(641.857017, 271.588834)"><g><path d="M 49.09375 -61.546875 C 50 -62.378906 50.910156 -62.671875 51.828125 -62.421875 C 52.660156 -62.171875 53.117188 -61.671875 53.203125 -60.921875 C 53.367188 -60.085938 52.992188 -59.21875 52.078125 -58.3125 C 42.691406 -49.664062 34.675781 -45.34375 28.03125 -45.34375 C 25.207031 -45.34375 22.960938 -45.96875 21.296875 -47.21875 C 19.554688 -48.550781 18.644531 -50.546875 18.5625 -53.203125 C 15.488281 -49.710938 12.789062 -47.550781 10.46875 -46.71875 C 7.976562 -45.800781 6.191406 -45.34375 5.109375 -45.34375 C 2.367188 -45.34375 0.539062 -46.300781 -0.375 -48.21875 C -1.289062 -50.207031 -1.582031 -52.53125 -1.25 -55.1875 C -1.082031 -56.601562 -0.789062 -58.035156 -0.375 -59.484375 C 0.0390625 -60.941406 0.582031 -62.457031 1.25 -64.03125 C 1.75 -65.113281 2.453125 -65.78125 3.359375 -66.03125 C 4.273438 -66.28125 5.066406 -66.15625 5.734375 -65.65625 C 6.316406 -65.238281 6.398438 -64.453125 5.984375 -63.296875 C 5.648438 -62.460938 5.335938 -61.585938 5.046875 -60.671875 C 4.753906 -59.753906 4.484375 -58.800781 4.234375 -57.8125 C 3.734375 -55.8125 3.609375 -54.066406 3.859375 -52.578125 C 4.109375 -51.078125 4.941406 -50.328125 6.359375 -50.328125 C 10.671875 -50.328125 15.363281 -55.0625 20.4375 -64.53125 C 21.09375 -65.53125 21.796875 -66.15625 22.546875 -66.40625 C 23.546875 -66.570312 24.296875 -66.488281 24.796875 -66.15625 C 25.378906 -65.820312 25.546875 -65.070312 25.296875 -63.90625 C 25.210938 -63.582031 25.148438 -63.296875 25.109375 -63.046875 C 25.066406 -62.796875 25.003906 -62.503906 24.921875 -62.171875 C 24.003906 -59.265625 23.628906 -56.6875 23.796875 -54.4375 C 23.960938 -52.113281 25.457031 -50.785156 28.28125 -50.453125 C 33.507812 -49.953125 40.445312 -53.648438 49.09375 -61.546875 Z M 49.09375 -61.546875 "/></g></g></g><g fill="#5e17eb" fill-opacity="1"><g transform="translate(690.694364, 271.588834)"><g><path d="M 49.953125 -62.296875 C 50.785156 -63.128906 51.660156 -63.421875 52.578125 -63.171875 C 53.492188 -62.921875 53.992188 -62.421875 54.078125 -61.671875 C 54.242188 -60.753906 53.910156 -59.882812 53.078125 -59.0625 C 51.242188 -57.226562 49.332031 -55.539062 47.34375 -54 C 45.351562 -52.46875 43.316406 -51 41.234375 -49.59375 C 37.171875 -46.757812 32.851562 -45.34375 28.28125 -45.34375 C 25.125 -45.34375 22.878906 -46.257812 21.546875 -48.09375 C 20.304688 -49.832031 19.601562 -52.195312 19.4375 -55.1875 C 19.351562 -58.09375 19.601562 -61.082031 20.1875 -64.15625 C 17.28125 -58.507812 14.375 -53.984375 11.46875 -50.578125 C 8.394531 -47.085938 5.320312 -45.34375 2.25 -45.34375 C -0.90625 -45.34375 -2.566406 -47.421875 -2.734375 -51.578125 C -2.566406 -55.234375 -1.613281 -58.515625 0.125 -61.421875 C 1.863281 -64.242188 3.898438 -66.03125 6.234375 -66.78125 C 8.472656 -67.53125 10.378906 -66.65625 11.953125 -64.15625 C 12.367188 -63.164062 12.289062 -62.335938 11.71875 -61.671875 C 11.132812 -60.835938 10.382812 -60.296875 9.46875 -60.046875 C 8.550781 -59.796875 7.800781 -60.085938 7.21875 -60.921875 C 6.8125 -61.585938 6.359375 -61.710938 5.859375 -61.296875 C 5.273438 -60.960938 4.773438 -60.253906 4.359375 -59.171875 C 4.109375 -58.597656 3.878906 -58.039062 3.671875 -57.5 C 3.460938 -56.957031 3.273438 -56.394531 3.109375 -55.8125 C 2.941406 -55.226562 2.816406 -54.707031 2.734375 -54.25 C 2.648438 -53.800781 2.566406 -53.367188 2.484375 -52.953125 C 2.484375 -52.617188 2.503906 -52.328125 2.546875 -52.078125 C 2.585938 -51.828125 2.648438 -51.535156 2.734375 -51.203125 C 2.816406 -50.617188 3.109375 -50.328125 3.609375 -50.328125 C 6.097656 -50.328125 9.003906 -53.238281 12.328125 -59.0625 C 15.734375 -64.789062 18.972656 -71.640625 22.046875 -79.609375 C 23.628906 -83.515625 25.125 -87.335938 26.53125 -91.078125 C 27.945312 -94.816406 29.238281 -98.46875 30.40625 -102.03125 C 31.5625 -105.519531 32.535156 -108.507812 33.328125 -111 C 34.117188 -113.5 34.722656 -115.453125 35.140625 -116.859375 C 35.546875 -118.273438 36.25 -119.234375 37.25 -119.734375 C 38.164062 -120.234375 38.957031 -120.234375 39.625 -119.734375 C 40.28125 -119.148438 40.445312 -118.191406 40.125 -116.859375 C 39.125 -113.285156 38.082031 -109.671875 37 -106.015625 C 35.925781 -102.367188 34.804688 -98.71875 33.640625 -95.0625 C 31.148438 -87.082031 29.03125 -79.734375 27.28125 -73.015625 C 25.375 -66.285156 24.503906 -60.84375 24.671875 -56.6875 C 24.671875 -52.445312 26.332031 -50.328125 29.65625 -50.328125 C 32.726562 -50.328125 35.84375 -51.367188 39 -53.453125 C 40.65625 -54.523438 42.375 -55.785156 44.15625 -57.234375 C 45.945312 -58.691406 47.878906 -60.378906 49.953125 -62.296875 Z M 49.953125 -62.296875 "/></g></g></g><g fill="#5e17eb" fill-opacity="1"><g transform="translate(740.77758, 271.588834)"><g><path d="M -1.375 22.046875 C 2.53125 18.390625 6.5625 11.082031 10.71875 0.125 C 12.707031 -5.269531 14.59375 -10.769531 16.375 -16.375 C 18.164062 -21.988281 19.847656 -27.703125 21.421875 -33.515625 C 17.359375 -28.941406 13.75 -24.367188 10.59375 -19.796875 C 7.4375 -15.234375 4.65625 -10.628906 2.25 -5.984375 C -2.40625 3.234375 -5.066406 10.710938 -5.734375 16.453125 C -6.066406 18.773438 -5.859375 20.640625 -5.109375 22.046875 C -4.441406 23.378906 -3.195312 23.378906 -1.375 22.046875 Z M 57.9375 -63.046875 C 59.007812 -63.378906 59.835938 -63.210938 60.421875 -62.546875 C 60.835938 -61.878906 60.878906 -61.128906 60.546875 -60.296875 C 60.128906 -59.304688 59.382812 -58.644531 58.3125 -58.3125 C 47.34375 -54.988281 37.375 -49.085938 28.40625 -40.609375 C 26.332031 -32.722656 24.210938 -25.289062 22.046875 -18.3125 C 19.890625 -11.332031 17.691406 -4.851562 15.453125 1.125 C 10.878906 13.164062 6.144531 21.304688 1.25 25.546875 C -1.90625 27.953125 -4.8125 28.613281 -7.46875 27.53125 C -10.132812 26.457031 -11.300781 23.050781 -10.96875 17.3125 C -10.550781 13.5 -9.445312 9.265625 -7.65625 4.609375 C -5.875 -0.0351562 -3.445312 -5.144531 -0.375 -10.71875 C 2.695312 -16.28125 6.226562 -21.695312 10.21875 -26.96875 C 14.207031 -32.25 18.734375 -37.378906 23.796875 -42.359375 L 27.03125 -54.6875 C 27.113281 -55.019531 27.175781 -55.3125 27.21875 -55.5625 C 27.257812 -55.8125 27.320312 -56.101562 27.40625 -56.4375 C 24.914062 -54.28125 22.585938 -52.472656 20.421875 -51.015625 C 18.265625 -49.566406 16.273438 -48.46875 14.453125 -47.71875 C 10.710938 -46.21875 7.679688 -45.46875 5.359375 -45.46875 C 2.367188 -45.46875 0.375 -46.425781 -0.625 -48.34375 C -1.539062 -50.164062 -1.832031 -52.488281 -1.5 -55.3125 C -1.164062 -58.050781 -0.289062 -61 1.125 -64.15625 C 1.625 -65.238281 2.328125 -65.90625 3.234375 -66.15625 C 4.148438 -66.40625 4.941406 -66.28125 5.609375 -65.78125 C 6.191406 -65.363281 6.273438 -64.535156 5.859375 -63.296875 C 5.523438 -62.460938 5.191406 -61.585938 4.859375 -60.671875 C 4.523438 -59.753906 4.234375 -58.84375 3.984375 -57.9375 C 3.484375 -55.851562 3.398438 -54.148438 3.734375 -52.828125 C 3.984375 -51.328125 4.941406 -50.578125 6.609375 -50.578125 C 7.679688 -50.578125 9.34375 -50.910156 11.59375 -51.578125 C 13.664062 -52.160156 16.195312 -53.53125 19.1875 -55.6875 C 22.257812 -57.769531 25.75 -60.800781 29.65625 -64.78125 C 30.726562 -65.863281 31.847656 -66.28125 33.015625 -66.03125 C 34.097656 -65.695312 34.472656 -64.742188 34.140625 -63.171875 C 33.972656 -62.503906 33.785156 -61.671875 33.578125 -60.671875 C 33.367188 -59.671875 33.097656 -58.59375 32.765625 -57.4375 C 32.429688 -56.269531 32.054688 -54.914062 31.640625 -53.375 C 31.222656 -51.84375 30.8125 -50.164062 30.40625 -48.34375 C 38.875 -55.320312 48.050781 -60.222656 57.9375 -63.046875 Z M 57.9375 -63.046875 "/></g></g><g transform="translate(797.837555, 271.588834)"><g><path d="M 42.859375 -61.546875 C 43.691406 -62.378906 44.5625 -62.671875 45.46875 -62.421875 C 46.21875 -62.171875 46.71875 -61.671875 46.96875 -60.921875 C 47.132812 -60.085938 46.757812 -59.21875 45.84375 -58.3125 C 36.289062 -49.664062 28.234375 -45.34375 21.671875 -45.34375 C 19.015625 -45.34375 16.859375 -45.925781 15.203125 -47.09375 C 13.617188 -48.257812 12.617188 -50.128906 12.203125 -52.703125 C 8.554688 -47.796875 5.195312 -45.34375 2.125 -45.34375 C -1.113281 -45.34375 -2.859375 -47.085938 -3.109375 -50.578125 C -3.109375 -53.648438 -2.238281 -56.597656 -0.5 -59.421875 C 1.082031 -62.253906 3.078125 -64.289062 5.484375 -65.53125 C 7.890625 -66.78125 10.003906 -66.488281 11.828125 -64.65625 C 12.410156 -64 12.492188 -63.210938 12.078125 -62.296875 C 11.585938 -61.460938 10.882812 -60.835938 9.96875 -60.421875 C 9.050781 -60.003906 8.257812 -60.128906 7.59375 -60.796875 C 7.019531 -61.296875 6.316406 -61.046875 5.484375 -60.046875 C 4.648438 -59.054688 3.898438 -57.8125 3.234375 -56.3125 C 2.492188 -54.738281 2.125 -53.328125 2.125 -52.078125 C 2.125 -51.578125 2.203125 -51.160156 2.359375 -50.828125 C 2.523438 -50.578125 2.734375 -50.453125 2.984375 -50.453125 C 3.066406 -50.367188 3.234375 -50.328125 3.484375 -50.328125 C 3.816406 -50.328125 4.398438 -50.703125 5.234375 -51.453125 C 5.984375 -52.035156 7.144531 -53.40625 8.71875 -55.5625 C 10.300781 -57.644531 12.128906 -60.59375 14.203125 -64.40625 C 14.703125 -65.40625 15.367188 -66.03125 16.203125 -66.28125 C 17.109375 -66.53125 17.851562 -66.488281 18.4375 -66.15625 C 19.019531 -65.820312 19.226562 -65.070312 19.0625 -63.90625 L 18.8125 -63.171875 C 17.8125 -59.929688 17.351562 -57.144531 17.4375 -54.8125 C 17.4375 -52.320312 18.929688 -50.867188 21.921875 -50.453125 C 27.078125 -49.953125 34.054688 -53.648438 42.859375 -61.546875 Z M 42.859375 -61.546875 "/></g></g></g><g fill="#5e17eb" fill-opacity="1"><g transform="translate(840.694838, 271.588834)"><g><path d="M 34.265625 -61.796875 C 35.253906 -62.546875 36.125 -62.796875 36.875 -62.546875 C 37.707031 -62.128906 38.164062 -61.546875 38.25 -60.796875 C 38.332031 -60.046875 37.875 -59.21875 36.875 -58.3125 C 31.5625 -53.988281 26.953125 -50.75 23.046875 -48.59375 C 19.140625 -46.425781 15.113281 -45.34375 10.96875 -45.34375 C 5.3125 -45.34375 1.863281 -47.296875 0.625 -51.203125 C -0.789062 -55.109375 -0.664062 -60.921875 1 -68.640625 C 1.832031 -72.460938 2.828125 -76.757812 3.984375 -81.53125 C 5.148438 -86.3125 6.519531 -91.523438 8.09375 -97.171875 C 8.59375 -98.835938 9.09375 -100.582031 9.59375 -102.40625 C 10.09375 -104.238281 10.59375 -106.066406 11.09375 -107.890625 C 11.257812 -108.722656 11.460938 -109.53125 11.703125 -110.3125 C 11.953125 -111.101562 12.160156 -111.914062 12.328125 -112.75 L 13.703125 -117.484375 C 14.117188 -118.734375 14.742188 -119.523438 15.578125 -119.859375 C 16.484375 -120.273438 17.3125 -120.273438 18.0625 -119.859375 C 18.726562 -119.441406 18.9375 -118.648438 18.6875 -117.484375 L 17.4375 -112.75 C 17.1875 -111.914062 16.9375 -111.101562 16.6875 -110.3125 C 16.445312 -109.53125 16.242188 -108.722656 16.078125 -107.890625 C 15.492188 -105.898438 14.953125 -103.96875 14.453125 -102.09375 C 13.953125 -100.226562 13.453125 -98.382812 12.953125 -96.5625 C 11.628906 -91.738281 10.445312 -87.25 9.40625 -83.09375 C 8.363281 -78.945312 7.472656 -75.171875 6.734375 -71.765625 C 5.898438 -68.359375 5.378906 -65.328125 5.171875 -62.671875 C 4.960938 -60.015625 5.023438 -57.769531 5.359375 -55.9375 C 6.023438 -52.195312 8.347656 -50.328125 12.328125 -50.328125 C 15.234375 -50.328125 18.265625 -51.160156 21.421875 -52.828125 C 23.003906 -53.660156 24.875 -54.820312 27.03125 -56.3125 C 29.195312 -57.8125 31.609375 -59.640625 34.265625 -61.796875 Z M 34.265625 -61.796875 "/></g></g></g><g fill="#ffde59" fill-opacity="1"><g transform="translate(269.369758, 333.60511)"><g><path d="M 23.828125 -8.484375 L 23.828125 -15.515625 C 23.828125 -17.015625 23.816406 -18.367188 23.796875 -19.578125 C 23.785156 -20.785156 23.753906 -21.769531 23.703125 -22.53125 C 23.660156 -23.300781 23.609375 -23.757812 23.546875 -23.90625 L 20.328125 -24.640625 L 20.46875 -26.9375 L 30.25 -26.9375 L 30.390625 -24.640625 L 27.453125 -23.90625 C 27.421875 -23.757812 27.378906 -23.3125 27.328125 -22.5625 C 27.285156 -21.8125 27.25 -20.820312 27.21875 -19.59375 C 27.1875 -18.375 27.171875 -17.015625 27.171875 -15.515625 L 27.171875 -6.796875 C 27.171875 -5.359375 27.171875 -4.09375 27.171875 -3 C 27.171875 -1.914062 27.171875 -0.835938 27.171875 0.234375 L 24.375 0.234375 L 5.921875 -21.109375 L 8.359375 -21.109375 L 8.359375 -11.984375 C 8.359375 -10.328125 8.375 -8.863281 8.40625 -7.59375 C 8.4375 -6.320312 8.472656 -5.296875 8.515625 -4.515625 C 8.554688 -3.734375 8.625 -3.238281 8.71875 -3.03125 L 11.890625 -2.296875 L 11.75 0 L 1.84375 0 L 1.703125 -2.296875 L 4.59375 -3.03125 C 4.65625 -3.238281 4.707031 -3.75 4.75 -4.5625 C 4.789062 -5.375 4.828125 -6.429688 4.859375 -7.734375 C 4.890625 -9.035156 4.90625 -10.453125 4.90625 -11.984375 L 4.90625 -18.078125 C 4.90625 -18.910156 4.882812 -19.738281 4.84375 -20.5625 C 4.800781 -21.382812 4.753906 -22.101562 4.703125 -22.71875 C 4.660156 -23.332031 4.625 -23.726562 4.59375 -23.90625 L 1.703125 -24.640625 L 1.84375 -26.9375 L 9.09375 -26.9375 L 25.703125 -8.484375 Z M 23.828125 -8.484375 "/></g></g></g><g fill="#ffde59" fill-opacity="1"><g transform="translate(315.499976, 333.60511)"><g><path d="M 23.875 0.28125 C 23.007812 0.21875 21.972656 0.15625 20.765625 0.09375 C 19.554688 0.03125 18.460938 0 17.484375 0 L 1.703125 0 L 1.5625 -2.296875 L 4.5 -3.03125 C 4.5625 -3.1875 4.613281 -3.582031 4.65625 -4.21875 C 4.707031 -4.863281 4.742188 -5.695312 4.765625 -6.71875 C 4.796875 -7.75 4.8125 -8.875 4.8125 -10.09375 L 4.8125 -16.796875 C 4.8125 -18.085938 4.796875 -19.242188 4.765625 -20.265625 C 4.742188 -21.285156 4.707031 -22.117188 4.65625 -22.765625 C 4.613281 -23.410156 4.5625 -23.789062 4.5 -23.90625 L 1.5625 -24.640625 L 1.703125 -26.9375 L 15.828125 -26.9375 C 16.441406 -26.9375 17.1875 -26.941406 18.0625 -26.953125 C 18.9375 -26.972656 19.789062 -27.003906 20.625 -27.046875 C 21.46875 -27.097656 22.179688 -27.140625 22.765625 -27.171875 L 24 -20.375 L 21.34375 -20.015625 L 19.640625 -24.046875 C 19.242188 -24.140625 18.882812 -24.203125 18.5625 -24.234375 C 18.238281 -24.265625 17.894531 -24.28125 17.53125 -24.28125 L 14.046875 -24.28125 C 13.460938 -24.28125 12.898438 -24.269531 12.359375 -24.25 C 11.828125 -24.238281 11.394531 -24.203125 11.0625 -24.140625 C 11.0625 -23.898438 11.050781 -23.535156 11.03125 -23.046875 C 11.019531 -22.554688 11.003906 -21.925781 10.984375 -21.15625 C 10.972656 -20.394531 10.96875 -19.492188 10.96875 -18.453125 L 10.96875 -8.8125 C 10.96875 -7.832031 10.972656 -6.957031 10.984375 -6.1875 C 11.003906 -5.425781 11.019531 -4.789062 11.03125 -4.28125 C 11.050781 -3.78125 11.0625 -3.394531 11.0625 -3.125 C 11.613281 -3.03125 12.191406 -2.96875 12.796875 -2.9375 C 13.410156 -2.90625 14.175781 -2.890625 15.09375 -2.890625 L 17.53125 -2.890625 C 18.332031 -2.890625 18.921875 -2.894531 19.296875 -2.90625 C 19.679688 -2.925781 19.972656 -2.953125 20.171875 -2.984375 C 20.367188 -3.015625 20.578125 -3.046875 20.796875 -3.078125 L 23.3125 -7.671875 L 25.9375 -7.15625 Z M 18.03125 -9.1875 L 17.578125 -12.25 C 17.367188 -12.28125 17.03125 -12.300781 16.5625 -12.3125 C 16.101562 -12.332031 15.570312 -12.34375 14.96875 -12.34375 L 12.53125 -12.34375 C 12.007812 -12.34375 11.507812 -12.328125 11.03125 -12.296875 C 10.5625 -12.265625 10.203125 -12.234375 9.953125 -12.203125 L 9.953125 -15.46875 C 10.203125 -15.4375 10.5625 -15.40625 11.03125 -15.375 C 11.507812 -15.34375 12.007812 -15.328125 12.53125 -15.328125 L 14.96875 -15.328125 C 15.570312 -15.328125 16.101562 -15.332031 16.5625 -15.34375 C 17.03125 -15.363281 17.367188 -15.375 17.578125 -15.375 L 18.03125 -18.453125 L 20.5625 -18.453125 L 20.5625 -9.1875 Z M 18.03125 -9.1875 "/></g></g></g><g fill="#ffde59" fill-opacity="1"><g transform="translate(356.307185, 333.60511)"><g><path d="M 27.71875 0 L 15.328125 0 L 15.1875 -2.296875 L 18.03125 -3.078125 L 12.859375 -10.609375 L 10.96875 -13.171875 L 3.484375 -23.90625 L 1.140625 -24.640625 L 1.28125 -26.9375 L 13.03125 -26.9375 L 13.171875 -24.640625 L 10.921875 -23.90625 L 15.09375 -17.953125 L 16.84375 -15.421875 L 25.515625 -3.078125 L 27.859375 -2.296875 Z M 19.234375 -23.90625 L 16.84375 -24.640625 L 16.984375 -26.9375 L 25.796875 -26.9375 L 25.9375 -24.640625 L 23.59375 -23.90625 L 16.84375 -15.421875 L 12.859375 -10.609375 L 7.671875 -3.078125 L 10.65625 -2.296875 L 10.515625 0 L 1.109375 0 L 0.96875 -2.296875 L 3.3125 -3.078125 L 10.96875 -13.171875 L 15.09375 -17.953125 Z M 19.234375 -23.90625 "/></g></g></g><g fill="#ffde59" fill-opacity="1"><g transform="translate(398.2616, 333.60511)"><g><path d="M 26.296875 -27.171875 L 27.359375 -19.046875 L 24.515625 -18.8125 L 22.671875 -24.09375 C 22.367188 -24.15625 22.046875 -24.191406 21.703125 -24.203125 C 21.367188 -24.222656 21.003906 -24.234375 20.609375 -24.234375 L 19.046875 -24.234375 C 18.773438 -24.234375 18.460938 -24.234375 18.109375 -24.234375 C 17.753906 -24.234375 17.484375 -24.203125 17.296875 -24.140625 C 17.296875 -23.960938 17.289062 -23.394531 17.28125 -22.4375 C 17.269531 -21.488281 17.253906 -20.359375 17.234375 -19.046875 C 17.222656 -17.734375 17.21875 -16.40625 17.21875 -15.0625 L 17.21875 -10.78125 C 17.21875 -9.070312 17.226562 -7.523438 17.25 -6.140625 C 17.28125 -4.765625 17.3125 -3.726562 17.34375 -3.03125 L 21.34375 -2.390625 L 21.203125 0 L 6.9375 0 L 6.796875 -2.390625 L 10.78125 -3.03125 C 10.8125 -3.726562 10.84375 -4.765625 10.875 -6.140625 C 10.90625 -7.523438 10.921875 -9.070312 10.921875 -10.78125 L 10.921875 -15.0625 C 10.921875 -16.40625 10.910156 -17.734375 10.890625 -19.046875 C 10.878906 -20.359375 10.875 -21.488281 10.875 -22.4375 C 10.875 -23.394531 10.859375 -23.960938 10.828125 -24.140625 C 10.648438 -24.203125 10.382812 -24.234375 10.03125 -24.234375 C 9.675781 -24.234375 9.363281 -24.234375 9.09375 -24.234375 L 7.484375 -24.234375 C 7.117188 -24.234375 6.742188 -24.222656 6.359375 -24.203125 C 5.972656 -24.191406 5.628906 -24.15625 5.328125 -24.09375 L 3.578125 -18.734375 L 0.734375 -19 L 1.703125 -27.171875 C 2.003906 -27.171875 2.4375 -27.15625 3 -27.125 C 3.570312 -27.09375 4.171875 -27.0625 4.796875 -27.03125 C 5.421875 -27 6.03125 -26.972656 6.625 -26.953125 C 7.226562 -26.941406 7.742188 -26.9375 8.171875 -26.9375 L 19.828125 -26.9375 C 20.253906 -26.9375 20.757812 -26.941406 21.34375 -26.953125 C 21.925781 -26.972656 22.535156 -27 23.171875 -27.03125 C 23.816406 -27.0625 24.414062 -27.09375 24.96875 -27.125 C 25.519531 -27.15625 25.960938 -27.171875 26.296875 -27.171875 Z M 26.296875 -27.171875 "/></g></g></g><g fill="#ffde59" fill-opacity="1"><g transform="translate(440.491331, 333.60511)"><g><path d="M 3.4375 -7.15625 L 3.4375 -11.75 L 14.546875 -13.359375 L 14.546875 -8.671875 Z M 3.4375 -7.15625 "/></g></g></g><g fill="#ffde59" fill-opacity="1"><g transform="translate(472.579811, 333.60511)"><g><path d="M 4.5 -3.03125 C 4.59375 -3.238281 4.664062 -4.007812 4.71875 -5.34375 C 4.78125 -6.675781 4.8125 -8.257812 4.8125 -10.09375 L 4.8125 -16.796875 C 4.8125 -18.722656 4.78125 -20.351562 4.71875 -21.6875 C 4.664062 -23.019531 4.59375 -23.757812 4.5 -23.90625 L 1.5625 -24.6875 L 1.703125 -26.9375 L 14.734375 -26.9375 C 17.972656 -26.9375 20.378906 -26.398438 21.953125 -25.328125 C 23.535156 -24.265625 24.328125 -22.644531 24.328125 -20.46875 C 24.328125 -18.789062 23.597656 -17.382812 22.140625 -16.25 C 20.691406 -15.113281 18.773438 -14.472656 16.390625 -14.328125 L 16.65625 -14.6875 C 19.5625 -14.5625 21.796875 -13.898438 23.359375 -12.703125 C 24.921875 -11.515625 25.703125 -9.910156 25.703125 -7.890625 C 25.703125 -5.410156 24.65625 -3.472656 22.5625 -2.078125 C 20.46875 -0.691406 17.535156 0 13.765625 0 L 1.703125 0 L 1.5625 -2.296875 Z M 10.96875 -8.125 C 10.96875 -6.894531 10.984375 -5.828125 11.015625 -4.921875 C 11.046875 -4.023438 11.078125 -3.410156 11.109375 -3.078125 C 11.410156 -2.953125 11.835938 -2.847656 12.390625 -2.765625 C 12.941406 -2.691406 13.445312 -2.65625 13.90625 -2.65625 C 15.5625 -2.65625 16.835938 -3.0625 17.734375 -3.875 C 18.640625 -4.6875 19.09375 -5.8125 19.09375 -7.25 C 19.09375 -9 18.601562 -10.273438 17.625 -11.078125 C 16.644531 -11.890625 15.097656 -12.296875 12.984375 -12.296875 C 12.460938 -12.296875 12.003906 -12.296875 11.609375 -12.296875 C 11.210938 -12.296875 10.800781 -12.265625 10.375 -12.203125 L 10.375 -15.234375 C 10.832031 -15.203125 11.238281 -15.175781 11.59375 -15.15625 C 11.945312 -15.144531 12.335938 -15.140625 12.765625 -15.140625 C 14.410156 -15.140625 15.644531 -15.546875 16.46875 -16.359375 C 17.300781 -17.171875 17.71875 -18.34375 17.71875 -19.875 C 17.71875 -21.25 17.3125 -22.34375 16.5 -23.15625 C 15.6875 -23.96875 14.441406 -24.375 12.765625 -24.375 L 11.0625 -24.375 C 11.03125 -24.09375 11.003906 -23.441406 10.984375 -22.421875 C 10.972656 -21.398438 10.96875 -20.195312 10.96875 -18.8125 Z M 10.96875 -8.125 "/></g></g></g><g fill="#ffde59" fill-opacity="1"><g transform="translate(514.350662, 333.60511)"><g><path d="M 22.90625 0.328125 C 22.101562 0.234375 21.242188 0.171875 20.328125 0.140625 C 19.410156 0.109375 18.53125 0.078125 17.6875 0.046875 C 16.851562 0.015625 16.191406 0 15.703125 0 L 1.796875 0 L 1.65625 -2.296875 L 4.59375 -3.03125 C 4.65625 -3.1875 4.703125 -3.609375 4.734375 -4.296875 C 4.765625 -4.984375 4.789062 -5.835938 4.8125 -6.859375 C 4.84375 -7.890625 4.859375 -8.96875 4.859375 -10.09375 L 4.859375 -16.796875 C 4.859375 -17.992188 4.84375 -19.101562 4.8125 -20.125 C 4.789062 -21.15625 4.765625 -22.003906 4.734375 -22.671875 C 4.703125 -23.347656 4.65625 -23.75 4.59375 -23.875 L 1.65625 -24.640625 L 1.796875 -26.9375 L 15.0625 -26.9375 L 15.1875 -24.5625 L 11.390625 -23.875 C 11.359375 -23.78125 11.316406 -23.410156 11.265625 -22.765625 C 11.222656 -22.117188 11.1875 -21.285156 11.15625 -20.265625 C 11.125 -19.242188 11.109375 -18.085938 11.109375 -16.796875 L 11.109375 -10.09375 C 11.109375 -8.320312 11.125 -6.890625 11.15625 -5.796875 C 11.1875 -4.710938 11.21875 -3.972656 11.25 -3.578125 C 11.769531 -3.484375 12.3125 -3.421875 12.875 -3.390625 C 13.4375 -3.359375 14.117188 -3.34375 14.921875 -3.34375 L 16.65625 -3.34375 C 17.300781 -3.34375 17.890625 -3.375 18.421875 -3.4375 C 18.960938 -3.5 19.398438 -3.5625 19.734375 -3.625 L 22.3125 -8.625 L 25.109375 -7.9375 Z M 22.90625 0.328125 "/></g></g></g><g fill="#ffde59" fill-opacity="1"><g transform="translate(553.735336, 333.60511)"><g><path d="M 16.53125 0.40625 C 13.707031 0.40625 11.203125 -0.171875 9.015625 -1.328125 C 6.828125 -2.492188 5.113281 -4.09375 3.875 -6.125 C 2.632812 -8.164062 2.015625 -10.5 2.015625 -13.125 C 2.015625 -15.882812 2.632812 -18.332031 3.875 -20.46875 C 5.113281 -22.613281 6.832031 -24.296875 9.03125 -25.515625 C 11.238281 -26.742188 13.75 -27.359375 16.5625 -27.359375 C 19.289062 -27.359375 21.691406 -26.78125 23.765625 -25.625 C 25.847656 -24.476562 27.488281 -22.894531 28.6875 -20.875 C 29.882812 -18.863281 30.484375 -16.507812 30.484375 -13.8125 C 30.484375 -11.457031 30.046875 -9.390625 29.171875 -7.609375 C 28.296875 -5.835938 27.160156 -4.351562 25.765625 -3.15625 C 24.378906 -1.96875 22.875 -1.078125 21.25 -0.484375 C 19.625 0.109375 18.050781 0.40625 16.53125 0.40625 Z M 16.890625 -3.03125 C 18.296875 -3.03125 19.472656 -3.40625 20.421875 -4.15625 C 21.367188 -4.90625 22.078125 -6 22.546875 -7.4375 C 23.023438 -8.875 23.265625 -10.617188 23.265625 -12.671875 C 23.265625 -15.023438 22.957031 -17.070312 22.34375 -18.8125 C 21.738281 -20.5625 20.898438 -21.914062 19.828125 -22.875 C 18.753906 -23.84375 17.484375 -24.328125 16.015625 -24.328125 C 13.910156 -24.328125 12.257812 -23.453125 11.0625 -21.703125 C 9.863281 -19.960938 9.265625 -17.546875 9.265625 -14.453125 C 9.265625 -12.191406 9.59375 -10.203125 10.25 -8.484375 C 10.914062 -6.773438 11.8125 -5.4375 12.9375 -4.46875 C 14.070312 -3.507812 15.390625 -3.03125 16.890625 -3.03125 Z M 16.890625 -3.03125 "/></g></g></g><g fill="#ffde59" fill-opacity="1"><g transform="translate(600.324429, 333.60511)"><g><path d="M 17.03125 0.40625 C 14.09375 0.40625 11.488281 -0.117188 9.21875 -1.171875 C 6.957031 -2.222656 5.191406 -3.734375 3.921875 -5.703125 C 2.648438 -7.679688 2.015625 -10.066406 2.015625 -12.859375 C 2.015625 -15.117188 2.410156 -17.144531 3.203125 -18.9375 C 4.003906 -20.726562 5.125 -22.25 6.5625 -23.5 C 8 -24.75 9.703125 -25.703125 11.671875 -26.359375 C 13.648438 -27.023438 15.816406 -27.359375 18.171875 -27.359375 C 19.578125 -27.359375 20.976562 -27.210938 22.375 -26.921875 C 23.769531 -26.628906 24.925781 -26.253906 25.84375 -25.796875 L 26.078125 -19.28125 L 23.171875 -19.1875 L 21.75 -23.40625 C 21.144531 -23.738281 20.472656 -23.972656 19.734375 -24.109375 C 19.003906 -24.253906 18.332031 -24.328125 17.71875 -24.328125 C 15.945312 -24.328125 14.425781 -23.910156 13.15625 -23.078125 C 11.882812 -22.253906 10.925781 -21.078125 10.28125 -19.546875 C 9.632812 -18.023438 9.3125 -16.222656 9.3125 -14.140625 C 9.3125 -11.785156 9.707031 -9.75 10.5 -8.03125 C 11.300781 -6.320312 12.375 -5.003906 13.71875 -4.078125 C 15.070312 -3.160156 16.554688 -2.703125 18.171875 -2.703125 C 18.628906 -2.703125 19.15625 -2.765625 19.75 -2.890625 C 20.351562 -3.015625 20.882812 -3.210938 21.34375 -3.484375 L 20.375 -1.015625 L 20.375 -5.875 C 20.375 -6.519531 20.359375 -7.207031 20.328125 -7.9375 C 20.296875 -8.675781 20.253906 -9.242188 20.203125 -9.640625 L 16.9375 -10.328125 L 17.078125 -12.71875 L 28.59375 -12.71875 L 28.734375 -10.421875 L 26.4375 -9.6875 C 26.40625 -9.375 26.394531 -8.894531 26.40625 -8.25 C 26.425781 -7.613281 26.4375 -6.945312 26.4375 -6.25 C 26.4375 -5.726562 26.453125 -5.128906 26.484375 -4.453125 C 26.515625 -3.773438 26.546875 -2.976562 26.578125 -2.0625 C 25.234375 -1.238281 23.722656 -0.617188 22.046875 -0.203125 C 20.378906 0.203125 18.707031 0.40625 17.03125 0.40625 Z M 17.03125 0.40625 "/></g></g></g></svg>